<svg viewBox="0 0 660 300" xmlns="http://www.w3.org/2000/svg" font-family="Segoe UI,Roboto,sans-serif"><rect width="660" height="300" fill="#141019"/><text x="330.0" y="20" fill="#e8dcff" font-size="13" font-weight="700" text-anchor="middle">Calibration curve — ln(count) vs 1/T (Arrhenius axes)</text><line x1="64" y1="246" x2="640" y2="246" stroke="#5a5266"/><line x1="64" y1="40" x2="64" y2="246" stroke="#5a5266"/><text x="352.0" y="290" fill="#968ba1" font-size="10.5" text-anchor="middle">temperature (°C), plotted on a 1/T axis</text><text x="20" y="143.0" fill="#968ba1" font-size="10.5" text-anchor="middle" transform="rotate(-90 20 143.0)">ln(count)</text><line x1="640.0" y1="246" x2="640.0" y2="250" stroke="#5a5266"/><text x="640.0" y="262" fill="#6f6780" font-size="9" text-anchor="middle">0</text><line x1="510.7" y1="246" x2="510.7" y2="250" stroke="#5a5266"/><text x="510.7" y="262" fill="#6f6780" font-size="9" text-anchor="middle">10</text><line x1="390.2" y1="246" x2="390.2" y2="250" stroke="#5a5266"/><text x="390.2" y="262" fill="#6f6780" font-size="9" text-anchor="middle">20</text><line x1="277.7" y1="246" x2="277.7" y2="250" stroke="#5a5266"/><text x="277.7" y="262" fill="#6f6780" font-size="9" text-anchor="middle">30</text><line x1="172.4" y1="246" x2="172.4" y2="250" stroke="#5a5266"/><text x="172.4" y="262" fill="#6f6780" font-size="9" text-anchor="middle">40</text><line x1="73.5" y1="246" x2="73.5" y2="250" stroke="#5a5266"/><text x="73.5" y="262" fill="#6f6780" font-size="9" text-anchor="middle">50</text><line x1="64" y1="239.4" x2="640" y2="44.0" stroke="#7fbfe0" stroke-width="1.4" stroke-dasharray="5 4"/><circle cx="640.0" cy="45.1" r="2.3" fill="#7ee0a8"/><circle cx="626.6" cy="49.5" r="2.3" fill="#7ee0a8"/><circle cx="613.4" cy="53.9" r="2.3" fill="#7ee0a8"/><circle cx="600.2" cy="58.4" r="2.3" fill="#7ee0a8"/><circle cx="587.2" cy="62.6" r="2.3" fill="#7ee0a8"/><circle cx="574.2" cy="66.8" r="2.3" fill="#7ee0a8"/><circle cx="561.3" cy="71.2" r="2.3" fill="#7ee0a8"/><circle cx="548.5" cy="75.5" r="2.3" fill="#7ee0a8"/><circle cx="535.8" cy="79.9" r="2.3" fill="#7ee0a8"/><circle cx="523.2" cy="83.9" r="2.3" fill="#7ee0a8"/><circle cx="510.7" cy="88.1" r="2.3" fill="#7ee0a8"/><circle cx="498.3" cy="92.3" r="2.3" fill="#7ee0a8"/><circle cx="485.9" cy="96.4" r="2.3" fill="#7ee0a8"/><circle cx="473.7" cy="100.2" r="2.3" fill="#7ee0a8"/><circle cx="461.5" cy="104.4" r="2.3" fill="#7ee0a8"/><circle cx="449.4" cy="108.2" r="2.3" fill="#7ee0a8"/><circle cx="437.4" cy="112.4" r="2.3" fill="#7ee0a8"/><circle cx="425.5" cy="116.1" r="2.3" fill="#7ee0a8"/><circle cx="413.7" cy="120.1" r="2.3" fill="#7ee0a8"/><circle cx="401.9" cy="124.5" r="2.3" fill="#7ee0a8"/><circle cx="390.2" cy="128.3" r="2.3" fill="#7ee0a8"/><circle cx="378.6" cy="132.4" r="2.3" fill="#7ee0a8"/><circle cx="367.1" cy="135.7" r="2.3" fill="#7ee0a8"/><circle cx="355.7" cy="139.3" r="2.3" fill="#7ee0a8"/><circle cx="344.3" cy="143.1" r="2.3" fill="#7ee0a8"/><circle cx="333.0" cy="147.2" r="2.3" fill="#7ee0a8"/><circle cx="321.8" cy="151.7" r="2.3" fill="#7ee0a8"/><circle cx="310.7" cy="154.9" r="2.3" fill="#7ee0a8"/><circle cx="299.6" cy="158.3" r="2.3" fill="#7ee0a8"/><circle cx="288.6" cy="162.0" r="2.3" fill="#7ee0a8"/><circle cx="277.7" cy="166.0" r="2.3" fill="#7ee0a8"/><circle cx="266.9" cy="170.3" r="2.3" fill="#7ee0a8"/><circle cx="256.1" cy="172.6" r="2.3" fill="#7ee0a8"/><circle cx="245.4" cy="177.5" r="2.3" fill="#7ee0a8"/><circle cx="234.7" cy="180.2" r="2.3" fill="#7ee0a8"/><circle cx="224.2" cy="183.0" r="2.3" fill="#7ee0a8"/><circle cx="213.7" cy="189.1" r="2.3" fill="#7ee0a8"/><circle cx="203.3" cy="192.5" r="2.3" fill="#7ee0a8"/><circle cx="192.9" cy="196.1" r="2.3" fill="#7ee0a8"/><circle cx="182.6" cy="199.9" r="2.3" fill="#7ee0a8"/><circle cx="172.4" cy="204.0" r="2.3" fill="#7ee0a8"/><circle cx="162.2" cy="204.1" r="2.3" fill="#7ee0a8"/><circle cx="152.1" cy="208.7" r="2.3" fill="#7ee0a8"/><circle cx="142.1" cy="213.7" r="2.3" fill="#7ee0a8"/><circle cx="132.1" cy="213.7" r="2.3" fill="#7ee0a8"/><circle cx="122.2" cy="219.3" r="2.3" fill="#7ee0a8"/><circle cx="112.3" cy="225.5" r="2.3" fill="#7ee0a8"/><circle cx="102.5" cy="225.5" r="2.3" fill="#7ee0a8"/><circle cx="92.8" cy="232.6" r="2.3" fill="#7ee0a8"/><circle cx="83.2" cy="232.6" r="2.3" fill="#7ee0a8"/><circle cx="73.5" cy="240.8" r="2.3" fill="#7ee0a8"/><circle cx="64.0" cy="240.9" r="2.3" fill="#7ee0a8"/><text x="632" y="58" fill="#bfe0f5" font-size="11" text-anchor="end">single-Arrhenius fit: R² = 0.99953</text><text x="632" y="74" fill="#7f9d88" font-size="10.5" text-anchor="end">Ea = 0.574 eV (≈ Eg/2) · 52 points, every 1 °C</text></svg>