<svg viewBox="0 0 660 260" xmlns="http://www.w3.org/2000/svg" font-family="Segoe UI,Roboto,sans-serif"><rect width="660" height="260" fill="#141019"/><text x="330.0" y="20" fill="#e8dcff" font-size="13" font-weight="700" text-anchor="middle">Residuals of the Arrhenius fit — now ±1-loop quantization, not lack-of-fit</text><line x1="64" y1="123.0" x2="640" y2="123.0" stroke="#5a5266"/><line x1="64" y1="40" x2="64" y2="206" stroke="#5a5266"/><text x="352.0" y="250" fill="#968ba1" font-size="10.5" text-anchor="middle">temperature (°C)</text><text x="20" y="123.0" fill="#968ba1" font-size="10.5" text-anchor="middle" transform="rotate(-90 20 123.0)">residual (ln count)</text><line x1="64.0" y1="206" x2="64.0" y2="210" stroke="#5a5266"/><text x="64.0" y="222" fill="#6f6780" font-size="9" text-anchor="middle">0</text><line x1="179.2" y1="206" x2="179.2" y2="210" stroke="#5a5266"/><text x="179.2" y="222" fill="#6f6780" font-size="9" text-anchor="middle">20</text><line x1="294.4" y1="206" x2="294.4" y2="210" stroke="#5a5266"/><text x="294.4" y="222" fill="#6f6780" font-size="9" text-anchor="middle">40</text><line x1="409.6" y1="206" x2="409.6" y2="210" stroke="#5a5266"/><text x="409.6" y="222" fill="#6f6780" font-size="9" text-anchor="middle">60</text><line x1="524.8" y1="206" x2="524.8" y2="210" stroke="#5a5266"/><text x="524.8" y="222" fill="#6f6780" font-size="9" text-anchor="middle">80</text><line x1="640.0" y1="206" x2="640.0" y2="210" stroke="#5a5266"/><text x="640.0" y="222" fill="#6f6780" font-size="9" text-anchor="middle">100</text><circle cx="64.0" cy="132.6" r="2.1" fill="#ff6b6b"/><circle cx="69.8" cy="132.3" r="2.1" fill="#ff6b6b"/><circle cx="75.5" cy="132.0" r="2.1" fill="#ff6b6b"/><circle cx="81.3" cy="131.2" r="2.1" fill="#ff6b6b"/><circle cx="87.0" cy="130.8" r="2.1" fill="#ff6b6b"/><circle cx="92.8" cy="130.4" r="2.1" fill="#ff6b6b"/><circle cx="98.6" cy="130.2" r="2.1" fill="#ff6b6b"/><circle cx="104.3" cy="129.9" r="2.1" fill="#ff6b6b"/><circle cx="110.1" cy="129.1" r="2.1" fill="#ff6b6b"/><circle cx="115.8" cy="128.9" r="2.1" fill="#ff6b6b"/><circle cx="121.6" cy="128.5" r="2.1" fill="#ff6b6b"/><circle cx="127.4" cy="127.9" r="2.1" fill="#ff6b6b"/><circle cx="133.1" cy="127.0" r="2.1" fill="#ff6b6b"/><circle cx="138.9" cy="127.5" r="2.1" fill="#ff6b6b"/><circle cx="144.6" cy="127.6" r="2.1" fill="#ff6b6b"/><circle cx="150.4" cy="126.4" r="2.1" fill="#ff6b6b"/><circle cx="156.2" cy="126.2" r="2.1" fill="#ff6b6b"/><circle cx="161.9" cy="125.3" r="2.1" fill="#ff6b6b"/><circle cx="167.7" cy="125.4" r="2.1" fill="#ff6b6b"/><circle cx="173.4" cy="124.4" r="2.1" fill="#ff6b6b"/><circle cx="179.2" cy="124.7" r="2.1" fill="#ff6b6b"/><circle cx="185.0" cy="125.6" r="2.1" fill="#ff6b6b"/><circle cx="190.7" cy="124.5" r="2.1" fill="#ff6b6b"/><circle cx="196.5" cy="125.2" r="2.1" fill="#ff6b6b"/><circle cx="202.2" cy="122.7" r="2.1" fill="#7ee0a8"/><circle cx="208.0" cy="123.4" r="2.1" fill="#ff6b6b"/><circle cx="213.8" cy="122.3" r="2.1" fill="#7ee0a8"/><circle cx="219.5" cy="121.1" r="2.1" fill="#7ee0a8"/><circle cx="225.3" cy="121.4" r="2.1" fill="#7ee0a8"/><circle cx="231.0" cy="121.1" r="2.1" fill="#7ee0a8"/><circle cx="236.8" cy="121.6" r="2.1" fill="#7ee0a8"/><circle cx="242.6" cy="121.7" r="2.1" fill="#7ee0a8"/><circle cx="248.3" cy="119.5" r="2.1" fill="#7ee0a8"/><circle cx="254.1" cy="119.8" r="2.1" fill="#7ee0a8"/><circle cx="259.8" cy="118.1" r="2.1" fill="#7ee0a8"/><circle cx="265.6" cy="120.1" r="2.1" fill="#7ee0a8"/><circle cx="271.4" cy="119.9" r="2.1" fill="#7ee0a8"/><circle cx="277.1" cy="116.0" r="2.1" fill="#7ee0a8"/><circle cx="282.9" cy="118.5" r="2.1" fill="#7ee0a8"/><circle cx="288.6" cy="116.3" r="2.1" fill="#7ee0a8"/><circle cx="294.4" cy="120.1" r="2.1" fill="#7ee0a8"/><circle cx="300.2" cy="115.0" r="2.1" fill="#7ee0a8"/><circle cx="305.9" cy="117.0" r="2.1" fill="#7ee0a8"/><circle cx="311.7" cy="112.6" r="2.1" fill="#7ee0a8"/><circle cx="317.4" cy="115.4" r="2.1" fill="#7ee0a8"/><circle cx="323.2" cy="120.6" r="2.1" fill="#7ee0a8"/><circle cx="329.0" cy="117.6" r="2.1" fill="#7ee0a8"/><circle cx="334.7" cy="118.6" r="2.1" fill="#7ee0a8"/><circle cx="340.5" cy="110.9" r="2.1" fill="#7ee0a8"/><circle cx="346.2" cy="118.5" r="2.1" fill="#7ee0a8"/><circle cx="352.0" cy="114.2" r="2.1" fill="#7ee0a8"/><circle cx="357.8" cy="120.9" r="2.1" fill="#7ee0a8"/><circle cx="363.5" cy="115.5" r="2.1" fill="#7ee0a8"/><circle cx="369.3" cy="118.6" r="2.1" fill="#7ee0a8"/><circle cx="375.0" cy="112.1" r="2.1" fill="#7ee0a8"/><circle cx="380.8" cy="111.6" r="2.1" fill="#7ee0a8"/><circle cx="386.6" cy="122.7" r="2.1" fill="#7ee0a8"/><circle cx="392.3" cy="117.9" r="2.1" fill="#7ee0a8"/><circle cx="398.1" cy="107.3" r="2.1" fill="#7ee0a8"/><circle cx="403.8" cy="128.9" r="2.1" fill="#ff6b6b"/><circle cx="409.6" cy="119.7" r="2.1" fill="#7ee0a8"/><circle cx="415.4" cy="125.3" r="2.1" fill="#ff6b6b"/><circle cx="421.1" cy="104.0" r="2.1" fill="#7ee0a8"/><circle cx="426.9" cy="115.8" r="2.1" fill="#7ee0a8"/><circle cx="432.6" cy="123.8" r="2.1" fill="#ff6b6b"/><circle cx="438.4" cy="115.4" r="2.1" fill="#7ee0a8"/><circle cx="444.2" cy="110.6" r="2.1" fill="#7ee0a8"/><circle cx="449.9" cy="103.5" r="2.1" fill="#7ee0a8"/><circle cx="455.7" cy="125.7" r="2.1" fill="#ff6b6b"/><circle cx="461.4" cy="104.8" r="2.1" fill="#7ee0a8"/><circle cx="467.2" cy="115.5" r="2.1" fill="#7ee0a8"/><circle cx="473.0" cy="125.1" r="2.1" fill="#ff6b6b"/><circle cx="478.7" cy="141.1" r="2.1" fill="#ff6b6b"/><circle cx="484.5" cy="127.5" r="2.1" fill="#ff6b6b"/><circle cx="490.2" cy="143.5" r="2.1" fill="#ff6b6b"/><circle cx="496.0" cy="105.6" r="2.1" fill="#7ee0a8"/><circle cx="501.8" cy="137.2" r="2.1" fill="#ff6b6b"/><circle cx="507.5" cy="98.1" r="2.1" fill="#7ee0a8"/><circle cx="513.3" cy="128.7" r="2.1" fill="#ff6b6b"/><circle cx="519.0" cy="142.3" r="2.1" fill="#ff6b6b"/><circle cx="524.8" cy="103.0" r="2.1" fill="#7ee0a8"/><circle cx="530.6" cy="115.2" r="2.1" fill="#7ee0a8"/><circle cx="536.3" cy="79.7" r="2.1" fill="#7ee0a8"/><circle cx="542.1" cy="118.4" r="2.1" fill="#7ee0a8"/><circle cx="547.8" cy="128.3" r="2.1" fill="#ff6b6b"/><circle cx="553.6" cy="74.3" r="2.1" fill="#7ee0a8"/><circle cx="559.4" cy="104.3" r="2.1" fill="#7ee0a8"/><circle cx="565.1" cy="104.1" r="2.1" fill="#7ee0a8"/><circle cx="570.9" cy="143.8" r="2.1" fill="#ff6b6b"/><circle cx="576.6" cy="92.6" r="2.1" fill="#7ee0a8"/><circle cx="582.4" cy="137.1" r="2.1" fill="#ff6b6b"/><circle cx="588.2" cy="145.1" r="2.1" fill="#ff6b6b"/><circle cx="593.9" cy="83.8" r="2.1" fill="#7ee0a8"/><circle cx="599.7" cy="181.2" r="2.1" fill="#ff6b6b"/><circle cx="605.4" cy="157.6" r="2.1" fill="#ff6b6b"/><circle cx="611.2" cy="114.6" r="2.1" fill="#7ee0a8"/><circle cx="617.0" cy="177.1" r="2.1" fill="#ff6b6b"/><circle cx="622.7" cy="176.1" r="2.1" fill="#ff6b6b"/><circle cx="628.5" cy="77.4" r="2.1" fill="#7ee0a8"/><circle cx="634.2" cy="195.2" r="2.1" fill="#ff6b6b"/><circle cx="640.0" cy="168.7" r="2.1" fill="#ff6b6b"/><text x="72" y="56" fill="#8b7f9c" font-size="10">R² = 1.000000, max |resid| ≈ 0.05% in count — the monotonic-clock fix removed the frame-boundary artifact</text></svg>