<svg viewBox="0 0 660 260" xmlns="http://www.w3.org/2000/svg" font-family="Segoe UI,Roboto,sans-serif"><rect width="660" height="260" fill="#141019"/><text x="330.0" y="20" fill="#e8dcff" font-size="13" font-weight="700" text-anchor="middle">Residuals of the Arrhenius fit — the runs are lack-of-fit, not noise</text><line x1="64" y1="123.0" x2="640" y2="123.0" stroke="#5a5266"/><line x1="64" y1="40" x2="64" y2="206" stroke="#5a5266"/><text x="352.0" y="250" fill="#968ba1" font-size="10.5" text-anchor="middle">temperature (°C)</text><text x="20" y="123.0" fill="#968ba1" font-size="10.5" text-anchor="middle" transform="rotate(-90 20 123.0)">residual (ln count)</text><line x1="64.0" y1="206" x2="64.0" y2="210" stroke="#5a5266"/><text x="64.0" y="222" fill="#6f6780" font-size="9" text-anchor="middle">0</text><line x1="176.9" y1="206" x2="176.9" y2="210" stroke="#5a5266"/><text x="176.9" y="222" fill="#6f6780" font-size="9" text-anchor="middle">10</text><line x1="289.9" y1="206" x2="289.9" y2="210" stroke="#5a5266"/><text x="289.9" y="222" fill="#6f6780" font-size="9" text-anchor="middle">20</text><line x1="402.8" y1="206" x2="402.8" y2="210" stroke="#5a5266"/><text x="402.8" y="222" fill="#6f6780" font-size="9" text-anchor="middle">30</text><line x1="515.8" y1="206" x2="515.8" y2="210" stroke="#5a5266"/><text x="515.8" y="222" fill="#6f6780" font-size="9" text-anchor="middle">40</text><line x1="628.7" y1="206" x2="628.7" y2="210" stroke="#5a5266"/><text x="628.7" y="222" fill="#6f6780" font-size="9" text-anchor="middle">50</text><circle cx="64.0" cy="140.2" r="2.3" fill="#ff6b6b"/><circle cx="75.3" cy="138.5" r="2.3" fill="#ff6b6b"/><circle cx="86.6" cy="136.7" r="2.3" fill="#ff6b6b"/><circle cx="97.9" cy="137.7" r="2.3" fill="#ff6b6b"/><circle cx="109.2" cy="133.8" r="2.3" fill="#ff6b6b"/><circle cx="120.5" cy="131.4" r="2.3" fill="#ff6b6b"/><circle cx="131.8" cy="130.5" r="2.3" fill="#ff6b6b"/><circle cx="143.1" cy="130.7" r="2.3" fill="#ff6b6b"/><circle cx="154.4" cy="131.6" r="2.3" fill="#ff6b6b"/><circle cx="165.6" cy="127.0" r="2.3" fill="#ff6b6b"/><circle cx="176.9" cy="127.7" r="2.3" fill="#ff6b6b"/><circle cx="188.2" cy="127.5" r="2.3" fill="#ff6b6b"/><circle cx="199.5" cy="125.4" r="2.3" fill="#ff6b6b"/><circle cx="210.8" cy="120.3" r="2.3" fill="#7ee0a8"/><circle cx="222.1" cy="120.5" r="2.3" fill="#7ee0a8"/><circle cx="233.4" cy="116.5" r="2.3" fill="#7ee0a8"/><circle cx="244.7" cy="117.7" r="2.3" fill="#7ee0a8"/><circle cx="256.0" cy="113.0" r="2.3" fill="#7ee0a8"/><circle cx="267.3" cy="113.3" r="2.3" fill="#7ee0a8"/><circle cx="278.6" cy="119.4" r="2.3" fill="#7ee0a8"/><circle cx="289.9" cy="116.9" r="2.3" fill="#7ee0a8"/><circle cx="301.2" cy="119.5" r="2.3" fill="#7ee0a8"/><circle cx="312.5" cy="110.3" r="2.3" fill="#7ee0a8"/><circle cx="323.8" cy="105.1" r="2.3" fill="#7ee0a8"/><circle cx="335.1" cy="104.3" r="2.3" fill="#7ee0a8"/><circle cx="346.4" cy="108.8" r="2.3" fill="#7ee0a8"/><circle cx="357.6" cy="119.2" r="2.3" fill="#7ee0a8"/><circle cx="368.9" cy="110.5" r="2.3" fill="#7ee0a8"/><circle cx="380.2" cy="105.6" r="2.3" fill="#7ee0a8"/><circle cx="391.5" cy="104.9" r="2.3" fill="#7ee0a8"/><circle cx="402.8" cy="109.1" r="2.3" fill="#7ee0a8"/><circle cx="414.1" cy="118.8" r="2.3" fill="#7ee0a8"/><circle cx="425.4" cy="97.8" r="2.3" fill="#7ee0a8"/><circle cx="436.7" cy="118.0" r="2.3" fill="#7ee0a8"/><circle cx="448.0" cy="103.3" r="2.3" fill="#7ee0a8"/><circle cx="459.3" cy="91.3" r="2.3" fill="#7ee0a8"/><circle cx="470.6" cy="130.9" r="2.3" fill="#ff6b6b"/><circle cx="481.9" cy="128.1" r="2.3" fill="#ff6b6b"/><circle cx="493.2" cy="129.4" r="2.3" fill="#ff6b6b"/><circle cx="504.5" cy="135.3" r="2.3" fill="#ff6b6b"/><circle cx="515.8" cy="144.5" r="2.3" fill="#ff6b6b"/><circle cx="527.1" cy="93.1" r="2.3" fill="#7ee0a8"/><circle cx="538.4" cy="110.7" r="2.3" fill="#7ee0a8"/><circle cx="549.6" cy="135.6" r="2.3" fill="#ff6b6b"/><circle cx="560.9" cy="83.3" r="2.3" fill="#7ee0a8"/><circle cx="572.2" cy="117.3" r="2.3" fill="#7ee0a8"/><circle cx="583.5" cy="162.3" r="2.3" fill="#ff6b6b"/><circle cx="594.8" cy="110.9" r="2.3" fill="#7ee0a8"/><circle cx="606.1" cy="170.1" r="2.3" fill="#ff6b6b"/><circle cx="617.4" cy="119.4" r="2.3" fill="#7ee0a8"/><circle cx="628.7" cy="195.2" r="2.3" fill="#ff6b6b"/><circle cx="640.0" cy="147.0" r="2.3" fill="#ff6b6b"/><text x="72" y="56" fill="#8b7f9c" font-size="10">high R² but structured residuals = model mismatch → we use interpolation, not this fit</text></svg>