<svg viewBox="0 0 660 300" xmlns="http://www.w3.org/2000/svg" font-family="Segoe UI,Roboto,sans-serif"><rect width="660" height="300" fill="#141019"/><text x="330.0" y="20" fill="#e8dcff" font-size="13" font-weight="700" text-anchor="middle">Calibration curve — ln(count) vs 1/T (Arrhenius axes)</text><line x1="64" y1="246" x2="640" y2="246" stroke="#5a5266"/><line x1="64" y1="40" x2="64" y2="246" stroke="#5a5266"/><text x="352.0" y="290" fill="#968ba1" font-size="10.5" text-anchor="middle">temperature (°C), plotted on a 1/T axis</text><text x="20" y="143.0" fill="#968ba1" font-size="10.5" text-anchor="middle" transform="rotate(-90 20 143.0)">ln(count)</text><line x1="640.0" y1="246" x2="640.0" y2="250" stroke="#5a5266"/><text x="640.0" y="262" fill="#6f6780" font-size="9" text-anchor="middle">0</text><line x1="493.4" y1="246" x2="493.4" y2="250" stroke="#5a5266"/><text x="493.4" y="262" fill="#6f6780" font-size="9" text-anchor="middle">20</text><line x1="365.5" y1="246" x2="365.5" y2="250" stroke="#5a5266"/><text x="365.5" y="262" fill="#6f6780" font-size="9" text-anchor="middle">40</text><line x1="252.9" y1="246" x2="252.9" y2="250" stroke="#5a5266"/><text x="252.9" y="262" fill="#6f6780" font-size="9" text-anchor="middle">60</text><line x1="153.1" y1="246" x2="153.1" y2="250" stroke="#5a5266"/><text x="153.1" y="262" fill="#6f6780" font-size="9" text-anchor="middle">80</text><line x1="64.0" y1="246" x2="64.0" y2="250" stroke="#5a5266"/><text x="64.0" y="262" fill="#6f6780" font-size="9" text-anchor="middle">100</text><line x1="64" y1="242.9" x2="640" y2="43.1" stroke="#7fbfe0" stroke-width="1.4" stroke-dasharray="5 4"/><circle cx="640.0" cy="43.1" r="2.1" fill="#7ee0a8"/><circle cx="632.2" cy="45.9" r="2.1" fill="#7ee0a8"/><circle cx="624.4" cy="48.5" r="2.1" fill="#7ee0a8"/><circle cx="616.7" cy="51.2" r="2.1" fill="#7ee0a8"/><circle cx="609.0" cy="53.9" r="2.1" fill="#7ee0a8"/><circle cx="601.4" cy="56.5" r="2.1" fill="#7ee0a8"/><circle cx="593.8" cy="59.2" r="2.1" fill="#7ee0a8"/><circle cx="586.3" cy="61.8" r="2.1" fill="#7ee0a8"/><circle cx="578.8" cy="64.3" r="2.1" fill="#7ee0a8"/><circle cx="571.4" cy="66.9" r="2.1" fill="#7ee0a8"/><circle cx="564.1" cy="69.5" r="2.1" fill="#7ee0a8"/><circle cx="556.8" cy="72.0" r="2.1" fill="#7ee0a8"/><circle cx="549.5" cy="74.5" r="2.1" fill="#7ee0a8"/><circle cx="542.4" cy="77.0" r="2.1" fill="#7ee0a8"/><circle cx="535.2" cy="79.5" r="2.1" fill="#7ee0a8"/><circle cx="528.1" cy="81.9" r="2.1" fill="#7ee0a8"/><circle cx="521.1" cy="84.4" r="2.1" fill="#7ee0a8"/><circle cx="514.1" cy="86.8" r="2.1" fill="#7ee0a8"/><circle cx="507.1" cy="89.2" r="2.1" fill="#7ee0a8"/><circle cx="500.2" cy="91.6" r="2.1" fill="#7ee0a8"/><circle cx="493.4" cy="94.0" r="2.1" fill="#7ee0a8"/><circle cx="486.6" cy="96.3" r="2.1" fill="#7ee0a8"/><circle cx="479.8" cy="98.7" r="2.1" fill="#7ee0a8"/><circle cx="473.1" cy="101.0" r="2.1" fill="#7ee0a8"/><circle cx="466.4" cy="103.3" r="2.1" fill="#7ee0a8"/><circle cx="459.8" cy="105.6" r="2.1" fill="#7ee0a8"/><circle cx="453.2" cy="107.9" r="2.1" fill="#7ee0a8"/><circle cx="446.7" cy="110.2" r="2.1" fill="#7ee0a8"/><circle cx="440.2" cy="112.4" r="2.1" fill="#7ee0a8"/><circle cx="433.7" cy="114.7" r="2.1" fill="#7ee0a8"/><circle cx="427.3" cy="116.9" r="2.1" fill="#7ee0a8"/><circle cx="420.9" cy="119.1" r="2.1" fill="#7ee0a8"/><circle cx="414.6" cy="121.3" r="2.1" fill="#7ee0a8"/><circle cx="408.3" cy="123.5" r="2.1" fill="#7ee0a8"/><circle cx="402.1" cy="125.6" r="2.1" fill="#7ee0a8"/><circle cx="395.9" cy="127.8" r="2.1" fill="#7ee0a8"/><circle cx="389.7" cy="129.9" r="2.1" fill="#7ee0a8"/><circle cx="383.6" cy="132.0" r="2.1" fill="#7ee0a8"/><circle cx="377.5" cy="134.1" r="2.1" fill="#7ee0a8"/><circle cx="371.5" cy="136.2" r="2.1" fill="#7ee0a8"/><circle cx="365.5" cy="138.3" r="2.1" fill="#7ee0a8"/><circle cx="359.5" cy="140.4" r="2.1" fill="#7ee0a8"/><circle cx="353.6" cy="142.5" r="2.1" fill="#7ee0a8"/><circle cx="347.7" cy="144.5" r="2.1" fill="#7ee0a8"/><circle cx="341.8" cy="146.5" r="2.1" fill="#7ee0a8"/><circle cx="336.0" cy="148.5" r="2.1" fill="#7ee0a8"/><circle cx="330.2" cy="150.5" r="2.1" fill="#7ee0a8"/><circle cx="324.5" cy="152.5" r="2.1" fill="#7ee0a8"/><circle cx="318.8" cy="154.5" r="2.1" fill="#7ee0a8"/><circle cx="313.1" cy="156.5" r="2.1" fill="#7ee0a8"/><circle cx="307.4" cy="158.4" r="2.1" fill="#7ee0a8"/><circle cx="301.8" cy="160.4" r="2.1" fill="#7ee0a8"/><circle cx="296.3" cy="162.3" r="2.1" fill="#7ee0a8"/><circle cx="290.7" cy="164.2" r="2.1" fill="#7ee0a8"/><circle cx="285.2" cy="166.1" r="2.1" fill="#7ee0a8"/><circle cx="279.8" cy="168.0" r="2.1" fill="#7ee0a8"/><circle cx="274.3" cy="169.9" r="2.1" fill="#7ee0a8"/><circle cx="268.9" cy="171.8" r="2.1" fill="#7ee0a8"/><circle cx="263.5" cy="173.7" r="2.1" fill="#7ee0a8"/><circle cx="258.2" cy="175.5" r="2.1" fill="#7ee0a8"/><circle cx="252.9" cy="177.4" r="2.1" fill="#7ee0a8"/><circle cx="247.6" cy="179.2" r="2.1" fill="#7ee0a8"/><circle cx="242.4" cy="181.0" r="2.1" fill="#7ee0a8"/><circle cx="237.2" cy="182.8" r="2.1" fill="#7ee0a8"/><circle cx="232.0" cy="184.6" r="2.1" fill="#7ee0a8"/><circle cx="226.8" cy="186.4" r="2.1" fill="#7ee0a8"/><circle cx="221.7" cy="188.2" r="2.1" fill="#7ee0a8"/><circle cx="216.6" cy="189.9" r="2.1" fill="#7ee0a8"/><circle cx="211.6" cy="191.7" r="2.1" fill="#7ee0a8"/><circle cx="206.6" cy="193.4" r="2.1" fill="#7ee0a8"/><circle cx="201.6" cy="195.2" r="2.1" fill="#7ee0a8"/><circle cx="196.6" cy="196.9" r="2.1" fill="#7ee0a8"/><circle cx="191.6" cy="198.6" r="2.1" fill="#7ee0a8"/><circle cx="186.7" cy="200.3" r="2.1" fill="#7ee0a8"/><circle cx="181.8" cy="202.0" r="2.1" fill="#7ee0a8"/><circle cx="177.0" cy="203.7" r="2.1" fill="#7ee0a8"/><circle cx="172.1" cy="205.4" r="2.1" fill="#7ee0a8"/><circle cx="167.3" cy="207.0" r="2.1" fill="#7ee0a8"/><circle cx="162.6" cy="208.7" r="2.1" fill="#7ee0a8"/><circle cx="157.8" cy="210.3" r="2.1" fill="#7ee0a8"/><circle cx="153.1" cy="212.0" r="2.1" fill="#7ee0a8"/><circle cx="148.4" cy="213.6" r="2.1" fill="#7ee0a8"/><circle cx="143.7" cy="215.2" r="2.1" fill="#7ee0a8"/><circle cx="139.1" cy="216.8" r="2.1" fill="#7ee0a8"/><circle cx="134.5" cy="218.4" r="2.1" fill="#7ee0a8"/><circle cx="129.9" cy="220.0" r="2.1" fill="#7ee0a8"/><circle cx="125.3" cy="221.6" r="2.1" fill="#7ee0a8"/><circle cx="120.8" cy="223.2" r="2.1" fill="#7ee0a8"/><circle cx="116.3" cy="224.7" r="2.1" fill="#7ee0a8"/><circle cx="111.8" cy="226.3" r="2.1" fill="#7ee0a8"/><circle cx="107.3" cy="227.8" r="2.1" fill="#7ee0a8"/><circle cx="102.9" cy="229.4" r="2.1" fill="#7ee0a8"/><circle cx="98.5" cy="230.9" r="2.1" fill="#7ee0a8"/><circle cx="94.1" cy="232.4" r="2.1" fill="#7ee0a8"/><circle cx="89.7" cy="233.9" r="2.1" fill="#7ee0a8"/><circle cx="85.4" cy="235.4" r="2.1" fill="#7ee0a8"/><circle cx="81.0" cy="237.0" r="2.1" fill="#7ee0a8"/><circle cx="76.8" cy="238.4" r="2.1" fill="#7ee0a8"/><circle cx="72.5" cy="239.9" r="2.1" fill="#7ee0a8"/><circle cx="68.2" cy="241.4" r="2.1" fill="#7ee0a8"/><circle cx="64.0" cy="242.9" r="2.1" fill="#7ee0a8"/><text x="632" y="58" fill="#bfe0f5" font-size="11" text-anchor="end">single-Arrhenius fit: R² = 1.000000</text><text x="632" y="74" fill="#7f9d88" font-size="10.5" text-anchor="end">Ea = 0.560 eV (recovers the injected 0.560 eV) · 101 points, every 1 °C</text></svg>