<svg viewBox="0 0 660 240" xmlns="http://www.w3.org/2000/svg" font-family="Segoe UI,Roboto,sans-serif"><rect width="660" height="240" fill="#141019"/><text x="330.0" y="20" fill="#e8dcff" font-size="13" font-weight="700" text-anchor="middle">Held-out check standards — round-trip error at un-calibrated temps</text><rect x="64" y="100.3" width="576" height="25.4" fill="#7ee0a8" opacity="0.10"/><line x1="64" y1="113.0" x2="640" y2="113.0" stroke="#5a5266"/><line x1="64" y1="40" x2="64" y2="186" stroke="#5a5266"/><text x="352.0" y="230" fill="#968ba1" font-size="10.5" text-anchor="middle">set temperature (°C)</text><text x="20" y="113.0" fill="#968ba1" font-size="10.5" text-anchor="middle" transform="rotate(-90 20 113.0)">error (°C)</text><text x="58" y="103.3" fill="#6f6780" font-size="8.5" text-anchor="end">+0.2</text><text x="58" y="116.0" fill="#6f6780" font-size="8.5" text-anchor="end">+0.0</text><text x="58" y="147.7" fill="#6f6780" font-size="8.5" text-anchor="end">-0.5</text><text x="58" y="179.5" fill="#6f6780" font-size="8.5" text-anchor="end">-1.0</text><text x="64.0" y="202" fill="#6f6780" font-size="9" text-anchor="middle">0</text><text x="176.9" y="202" fill="#6f6780" font-size="9" text-anchor="middle">10</text><text x="289.9" y="202" fill="#6f6780" font-size="9" text-anchor="middle">20</text><text x="402.8" y="202" fill="#6f6780" font-size="9" text-anchor="middle">30</text><text x="515.8" y="202" fill="#6f6780" font-size="9" text-anchor="middle">40</text><text x="628.7" y="202" fill="#6f6780" font-size="9" text-anchor="middle">50</text><line x1="103.5" y1="113.0" x2="103.5" y2="113.0" stroke="#7ee0a8" stroke-width="1.2"/><circle cx="103.5" cy="113.0" r="3" fill="#7ee0a8"/><text x="103.5" y="105.0" fill="#7ee0a8" font-size="9" text-anchor="middle">+0.0</text><line x1="205.2" y1="113.0" x2="205.2" y2="106.7" stroke="#7ee0a8" stroke-width="1.2"/><circle cx="205.2" cy="106.7" r="3" fill="#7ee0a8"/><text x="205.2" y="98.7" fill="#7ee0a8" font-size="9" text-anchor="middle">+0.1</text><line x1="318.1" y1="113.0" x2="318.1" y2="100.3" stroke="#7ee0a8" stroke-width="1.2"/><circle cx="318.1" cy="100.3" r="3" fill="#7ee0a8"/><text x="318.1" y="92.3" fill="#7ee0a8" font-size="9" text-anchor="middle">+0.2</text><line x1="374.6" y1="113.0" x2="374.6" y2="113.0" stroke="#7ee0a8" stroke-width="1.2"/><circle cx="374.6" cy="113.0" r="3" fill="#7ee0a8"/><text x="374.6" y="105.0" fill="#7ee0a8" font-size="9" text-anchor="middle">+0.0</text><line x1="487.5" y1="113.0" x2="487.5" y2="144.7" stroke="#ffb454" stroke-width="1.2"/><circle cx="487.5" cy="144.7" r="3" fill="#ffb454"/><text x="487.5" y="160.7" fill="#ffb454" font-size="9" text-anchor="middle">-0.5</text><line x1="600.5" y1="113.0" x2="600.5" y2="176.5" stroke="#ffb454" stroke-width="1.2"/><circle cx="600.5" cy="176.5" r="3" fill="#ffb454"/><text x="600.5" y="192.5" fill="#ffb454" font-size="9" text-anchor="middle">-1.0</text><text x="72" y="56" fill="#7f9d88" font-size="10">green band = ±0.2 °C · warm end loses sensitivity (slope) → quantization dominates</text></svg>