<svg viewBox="0 0 660 240" xmlns="http://www.w3.org/2000/svg" font-family="Segoe UI,Roboto,sans-serif"><rect width="660" height="240" fill="#141019"/><text x="330.0" y="20" fill="#e8dcff" font-size="13" font-weight="700" text-anchor="middle">Held-out check standards — round-trip error at un-calibrated half-degrees</text><rect x="64" y="76.5" width="576" height="73.0" fill="#7ee0a8" opacity="0.10"/><line x1="64" y1="113.0" x2="640" y2="113.0" stroke="#5a5266"/><line x1="64" y1="40" x2="64" y2="186" stroke="#5a5266"/><text x="352.0" y="230" fill="#968ba1" font-size="10.5" text-anchor="middle">set temperature (°C)</text><text x="20" y="113.0" fill="#968ba1" font-size="10.5" text-anchor="middle" transform="rotate(-90 20 113.0)">error (°C)</text><text x="58" y="79.5" fill="#6f6780" font-size="8.5" text-anchor="end">+0.5</text><text x="58" y="116.0" fill="#6f6780" font-size="8.5" text-anchor="end">+0.0</text><text x="58" y="152.5" fill="#6f6780" font-size="8.5" text-anchor="end">-0.5</text><text x="64.0" y="202" fill="#6f6780" font-size="9" text-anchor="middle">0</text><text x="179.2" y="202" fill="#6f6780" font-size="9" text-anchor="middle">20</text><text x="294.4" y="202" fill="#6f6780" font-size="9" text-anchor="middle">40</text><text x="409.6" y="202" fill="#6f6780" font-size="9" text-anchor="middle">60</text><text x="524.8" y="202" fill="#6f6780" font-size="9" text-anchor="middle">80</text><text x="640.0" y="202" fill="#6f6780" font-size="9" text-anchor="middle">100</text><line x1="124.5" y1="113.0" x2="124.5" y2="76.5" stroke="#7ee0a8" stroke-width="1.2"/><circle cx="124.5" cy="76.5" r="3" fill="#7ee0a8"/><text x="124.5" y="68.5" fill="#7ee0a8" font-size="9" text-anchor="middle">+0.5</text><line x1="210.9" y1="113.0" x2="210.9" y2="149.5" stroke="#7ee0a8" stroke-width="1.2"/><circle cx="210.9" cy="149.5" r="3" fill="#7ee0a8"/><text x="210.9" y="165.5" fill="#7ee0a8" font-size="9" text-anchor="middle">-0.5</text><line x1="297.3" y1="113.0" x2="297.3" y2="76.5" stroke="#7ee0a8" stroke-width="1.2"/><circle cx="297.3" cy="76.5" r="3" fill="#7ee0a8"/><text x="297.3" y="68.5" fill="#7ee0a8" font-size="9" text-anchor="middle">+0.5</text><line x1="412.5" y1="113.0" x2="412.5" y2="149.5" stroke="#7ee0a8" stroke-width="1.2"/><circle cx="412.5" cy="149.5" r="3" fill="#7ee0a8"/><text x="412.5" y="165.5" fill="#7ee0a8" font-size="9" text-anchor="middle">-0.5</text><line x1="527.7" y1="113.0" x2="527.7" y2="76.5" stroke="#7ee0a8" stroke-width="1.2"/><circle cx="527.7" cy="76.5" r="3" fill="#7ee0a8"/><text x="527.7" y="68.5" fill="#7ee0a8" font-size="9" text-anchor="middle">+0.5</text><line x1="585.3" y1="113.0" x2="585.3" y2="76.5" stroke="#7ee0a8" stroke-width="1.2"/><circle cx="585.3" cy="76.5" r="3" fill="#7ee0a8"/><text x="585.3" y="68.5" fill="#7ee0a8" font-size="9" text-anchor="middle">+0.5</text><text x="72" y="56" fill="#7f9d88" font-size="10">green band = ±0.5 °C integer-display floor · uniform cold→hot, no warm-end degradation</text></svg>