<svg xmlns="http://www.w3.org/2000/svg" viewBox="0 0 780 430" font-family="Segoe UI,Roboto,sans-serif">
<rect width="780" height="430" fill="#100f15"/>
<text x="390.0" y="26" fill="#dcd7e3" font-size="16" font-weight="700" text-anchor="middle">2C02: drive strength S = W/L by device class (log2 bins)</text>
<rect x="171.0" y="161.3" width="62.4" height="0.0" fill="#ff6b6b" fill-opacity="0.8" rx="2"/>
<rect x="235.4" y="161.2" width="62.4" height="0.1" fill="#ff6b6b" fill-opacity="0.8" rx="2"/>
<rect x="299.9" y="151.5" width="62.4" height="9.8" fill="#ff6b6b" fill-opacity="0.8" rx="2"/>
<rect x="364.3" y="133.5" width="62.4" height="27.9" fill="#ff6b6b" fill-opacity="0.8" rx="2"/>
<rect x="428.8" y="76.0" width="62.4" height="85.3" fill="#ff6b6b" fill-opacity="0.8" rx="2"/>
<rect x="493.2" y="139.2" width="62.4" height="22.1" fill="#ff6b6b" fill-opacity="0.8" rx="2"/>
<rect x="557.7" y="158.4" width="62.4" height="3.0" fill="#ff6b6b" fill-opacity="0.8" rx="2"/>
<rect x="622.1" y="161.0" width="62.4" height="0.3" fill="#ff6b6b" fill-opacity="0.8" rx="2"/>
<rect x="686.6" y="161.3" width="62.4" height="0.0" fill="#ff6b6b" fill-opacity="0.8" rx="2"/>
<text x="160.0" y="117.7" fill="#dcd7e3" font-size="12.5" font-weight="700" text-anchor="end">pulldown (9265)</text>
<line x1="170.0" y1="161.3" x2="750.0" y2="161.3" stroke="#968ba1" stroke-width="1"/>
<rect x="171.0" y="272.4" width="62.4" height="0.3" fill="#ffb454" fill-opacity="0.8" rx="2"/>
<rect x="235.4" y="267.9" width="62.4" height="4.7" fill="#ffb454" fill-opacity="0.8" rx="2"/>
<rect x="299.9" y="187.3" width="62.4" height="85.3" fill="#ffb454" fill-opacity="0.8" rx="2"/>
<rect x="364.3" y="259.9" width="62.4" height="12.8" fill="#ffb454" fill-opacity="0.8" rx="2"/>
<rect x="428.8" y="262.9" width="62.4" height="9.7" fill="#ffb454" fill-opacity="0.8" rx="2"/>
<rect x="493.2" y="203.2" width="62.4" height="69.5" fill="#ffb454" fill-opacity="0.8" rx="2"/>
<rect x="557.7" y="261.0" width="62.4" height="11.7" fill="#ffb454" fill-opacity="0.8" rx="2"/>
<rect x="622.1" y="272.7" width="62.4" height="0.0" fill="#ffb454" fill-opacity="0.8" rx="2"/>
<rect x="686.6" y="272.7" width="62.4" height="0.0" fill="#ffb454" fill-opacity="0.8" rx="2"/>
<text x="160.0" y="229.0" fill="#dcd7e3" font-size="12.5" font-weight="700" text-anchor="end">to-vcc (698)</text>
<line x1="170.0" y1="272.7" x2="750.0" y2="272.7" stroke="#968ba1" stroke-width="1"/>
<rect x="171.0" y="384.0" width="62.4" height="0.0" fill="#7ee0a8" fill-opacity="0.8" rx="2"/>
<rect x="235.4" y="384.0" width="62.4" height="0.0" fill="#7ee0a8" fill-opacity="0.8" rx="2"/>
<rect x="299.9" y="298.7" width="62.4" height="85.3" fill="#7ee0a8" fill-opacity="0.8" rx="2"/>
<rect x="364.3" y="381.4" width="62.4" height="2.6" fill="#7ee0a8" fill-opacity="0.8" rx="2"/>
<rect x="428.8" y="383.5" width="62.4" height="0.5" fill="#7ee0a8" fill-opacity="0.8" rx="2"/>
<rect x="493.2" y="383.6" width="62.4" height="0.4" fill="#7ee0a8" fill-opacity="0.8" rx="2"/>
<rect x="557.7" y="383.9" width="62.4" height="0.1" fill="#7ee0a8" fill-opacity="0.8" rx="2"/>
<rect x="622.1" y="384.0" width="62.4" height="0.0" fill="#7ee0a8" fill-opacity="0.8" rx="2"/>
<rect x="686.6" y="384.0" width="62.4" height="0.0" fill="#7ee0a8" fill-opacity="0.8" rx="2"/>
<text x="160.0" y="340.3" fill="#dcd7e3" font-size="12.5" font-weight="700" text-anchor="end">pass (6825)</text>
<line x1="170.0" y1="384.0" x2="750.0" y2="384.0" stroke="#968ba1" stroke-width="1"/>
<text x="170.0" y="414.0" fill="#968ba1" font-size="10.5" text-anchor="middle">2^-2</text>
<text x="234.4" y="414.0" fill="#968ba1" font-size="10.5" text-anchor="middle">2^-1</text>
<text x="298.9" y="414.0" fill="#968ba1" font-size="10.5" text-anchor="middle">2^0</text>
<text x="363.3" y="414.0" fill="#968ba1" font-size="10.5" text-anchor="middle">2^1</text>
<text x="427.8" y="414.0" fill="#968ba1" font-size="10.5" text-anchor="middle">2^2</text>
<text x="492.2" y="414.0" fill="#968ba1" font-size="10.5" text-anchor="middle">2^3</text>
<text x="556.7" y="414.0" fill="#968ba1" font-size="10.5" text-anchor="middle">2^4</text>
<text x="621.1" y="414.0" fill="#968ba1" font-size="10.5" text-anchor="middle">2^5</text>
<text x="685.6" y="414.0" fill="#968ba1" font-size="10.5" text-anchor="middle">2^6</text>
<text x="750.0" y="414.0" fill="#968ba1" font-size="10.5" text-anchor="middle">2^7</text>
<text x="460.0" y="428.0" fill="#dcd7e3" font-size="12" text-anchor="middle">S = W/L (die units)</text>
</svg>