<svg xmlns="http://www.w3.org/2000/svg" viewBox="0 0 780 360" font-family="Segoe UI,Roboto,sans-serif">
<rect width="780" height="360" fill="#100f15"/>
<text x="390.0" y="26" fill="#dcd7e3" font-size="16" font-weight="700" text-anchor="middle">2A03: driver-vs-driver fight sites — up-strength : down-strength</text>
<rect x="71.0" y="290.0" width="40.5" height="0.0" fill="#7ee0a8" fill-opacity="0.85" rx="2"/>
<rect x="113.5" y="285.7" width="40.5" height="4.3" fill="#7ee0a8" fill-opacity="0.85" rx="2"/>
<rect x="156.0" y="285.7" width="40.5" height="4.3" fill="#7ee0a8" fill-opacity="0.85" rx="2"/>
<rect x="198.5" y="151.3" width="40.5" height="138.7" fill="#7ee0a8" fill-opacity="0.85" rx="2"/>
<rect x="241.0" y="56.0" width="40.5" height="234.0" fill="#7ee0a8" fill-opacity="0.85" rx="2"/>
<rect x="283.5" y="95.0" width="40.5" height="195.0" fill="#7ee0a8" fill-opacity="0.85" rx="2"/>
<rect x="326.0" y="147.0" width="40.5" height="143.0" fill="#7ee0a8" fill-opacity="0.85" rx="2"/>
<rect x="368.5" y="268.3" width="40.5" height="21.7" fill="#7ee0a8" fill-opacity="0.85" rx="2"/>
<rect x="411.0" y="190.3" width="40.5" height="99.7" fill="#7ee0a8" fill-opacity="0.85" rx="2"/>
<rect x="453.5" y="281.3" width="40.5" height="8.7" fill="#7ee0a8" fill-opacity="0.85" rx="2"/>
<rect x="496.0" y="246.7" width="40.5" height="43.3" fill="#ff6b6b" fill-opacity="0.85" rx="2"/>
<rect x="538.5" y="212.0" width="40.5" height="78.0" fill="#ff6b6b" fill-opacity="0.85" rx="2"/>
<rect x="581.0" y="99.3" width="40.5" height="190.7" fill="#ff6b6b" fill-opacity="0.85" rx="2"/>
<rect x="623.5" y="255.3" width="40.5" height="34.7" fill="#ff6b6b" fill-opacity="0.85" rx="2"/>
<rect x="666.0" y="238.0" width="40.5" height="52.0" fill="#7ee0a8" fill-opacity="0.85" rx="2"/>
<rect x="708.5" y="290.0" width="40.5" height="0.0" fill="#7ee0a8" fill-opacity="0.85" rx="2"/>
<line x1="580.0" y1="56.0" x2="580.0" y2="290.0" stroke="#ffb454" stroke-width="2"/>
<text x="580.0" y="52.0" fill="#ffb454" font-size="11.5" font-weight="700" text-anchor="middle">1:1</text>
<text x="70.0" y="306.0" fill="#968ba1" font-size="10.5" text-anchor="middle">1/64</text>
<text x="155.0" y="306.0" fill="#968ba1" font-size="10.5" text-anchor="middle">1/32</text>
<text x="240.0" y="306.0" fill="#968ba1" font-size="10.5" text-anchor="middle">1/16</text>
<text x="325.0" y="306.0" fill="#968ba1" font-size="10.5" text-anchor="middle">1/8</text>
<text x="410.0" y="306.0" fill="#968ba1" font-size="10.5" text-anchor="middle">1/4</text>
<text x="495.0" y="306.0" fill="#968ba1" font-size="10.5" text-anchor="middle">1/2</text>
<text x="580.0" y="306.0" fill="#968ba1" font-size="10.5" text-anchor="middle">1</text>
<text x="665.0" y="306.0" fill="#968ba1" font-size="10.5" text-anchor="middle">2</text>
<text x="750.0" y="306.0" fill="#968ba1" font-size="10.5" text-anchor="middle">4</text>
<line x1="70.0" y1="290.0" x2="750.0" y2="290.0" stroke="#968ba1" stroke-width="1"/>
<text x="410.0" y="340.0" fill="#dcd7e3" font-size="12" text-anchor="middle">S_up / S_down (red = within 2x — GND-wins is a coin-toss call here)</text>
</svg>