<svg xmlns="http://www.w3.org/2000/svg" viewBox="0 0 780 380" font-family="Segoe UI,Roboto,sans-serif">
<rect width="780" height="380" fill="#100f15"/>
<text x="390.0" y="26" fill="#dcd7e3" font-size="16" font-weight="700" text-anchor="middle">2C02: the strength vocabulary — top W/L values, cumulative coverage</text>
<rect x="73.0" y="56.0" width="40.4" height="254.0" fill="#c792ea" fill-opacity="0.8" rx="2"/>
<text x="93.2" y="326.0" fill="#968ba1" font-size="10.5" text-anchor="middle">1.4</text>
<rect x="91.2" y="244.0" width="4.0" height="4.0" fill="#7ee0a8" fill-opacity="1.0" rx="2"/>
<text x="93.2" y="238.0" fill="#7ee0a8" font-size="11" font-weight="700" text-anchor="middle">25%</text>
<rect x="119.4" y="251.5" width="40.4" height="58.5" fill="#c792ea" fill-opacity="0.8" rx="2"/>
<text x="139.6" y="326.0" fill="#968ba1" font-size="10.5" text-anchor="middle">1</text>
<rect x="137.6" y="229.3" width="4.0" height="4.0" fill="#7ee0a8" fill-opacity="1.0" rx="2"/>
<rect x="165.9" y="251.6" width="40.4" height="58.4" fill="#c792ea" fill-opacity="0.8" rx="2"/>
<text x="186.1" y="326.0" fill="#968ba1" font-size="10.5" text-anchor="middle">5.28</text>
<rect x="184.1" y="214.6" width="4.0" height="4.0" fill="#7ee0a8" fill-opacity="1.0" rx="2"/>
<rect x="212.3" y="252.3" width="40.4" height="57.7" fill="#c792ea" fill-opacity="0.8" rx="2"/>
<text x="232.5" y="326.0" fill="#968ba1" font-size="10.5" text-anchor="middle">1.8</text>
<rect x="230.5" y="200.1" width="4.0" height="4.0" fill="#7ee0a8" fill-opacity="1.0" rx="2"/>
<rect x="258.7" y="256.4" width="40.4" height="53.6" fill="#c792ea" fill-opacity="0.8" rx="2"/>
<text x="278.9" y="326.0" fill="#968ba1" font-size="10.5" text-anchor="middle">5.48</text>
<rect x="276.9" y="186.6" width="4.0" height="4.0" fill="#7ee0a8" fill-opacity="1.0" rx="2"/>
<text x="278.9" y="180.6" fill="#7ee0a8" font-size="11" font-weight="700" text-anchor="middle">48%</text>
<rect x="305.1" y="262.5" width="40.4" height="47.5" fill="#c792ea" fill-opacity="0.8" rx="2"/>
<text x="325.4" y="326.0" fill="#968ba1" font-size="10.5" text-anchor="middle">1.29</text>
<rect x="323.4" y="174.6" width="4.0" height="4.0" fill="#7ee0a8" fill-opacity="1.0" rx="2"/>
<rect x="351.6" y="271.2" width="40.4" height="38.8" fill="#c792ea" fill-opacity="0.8" rx="2"/>
<text x="371.8" y="326.0" fill="#968ba1" font-size="10.5" text-anchor="middle">5.08</text>
<rect x="369.8" y="164.8" width="4.0" height="4.0" fill="#7ee0a8" fill-opacity="1.0" rx="2"/>
<rect x="398.0" y="273.9" width="40.4" height="36.1" fill="#c792ea" fill-opacity="0.8" rx="2"/>
<text x="418.2" y="326.0" fill="#968ba1" font-size="10.5" text-anchor="middle">3.8</text>
<rect x="416.2" y="155.7" width="4.0" height="4.0" fill="#7ee0a8" fill-opacity="1.0" rx="2"/>
<rect x="444.4" y="279.7" width="40.4" height="30.3" fill="#c792ea" fill-opacity="0.8" rx="2"/>
<text x="464.6" y="326.0" fill="#968ba1" font-size="10.5" text-anchor="middle">3.6</text>
<rect x="462.6" y="148.1" width="4.0" height="4.0" fill="#7ee0a8" fill-opacity="1.0" rx="2"/>
<rect x="490.9" y="280.4" width="40.4" height="29.6" fill="#c792ea" fill-opacity="0.8" rx="2"/>
<text x="511.1" y="326.0" fill="#968ba1" font-size="10.5" text-anchor="middle">5.68</text>
<rect x="509.1" y="140.7" width="4.0" height="4.0" fill="#7ee0a8" fill-opacity="1.0" rx="2"/>
<text x="511.1" y="134.7" fill="#7ee0a8" font-size="11" font-weight="700" text-anchor="middle">66%</text>
<rect x="537.3" y="282.5" width="40.4" height="27.5" fill="#c792ea" fill-opacity="0.8" rx="2"/>
<text x="557.5" y="326.0" fill="#968ba1" font-size="10.5" text-anchor="middle">1.6</text>
<rect x="555.5" y="133.7" width="4.0" height="4.0" fill="#7ee0a8" fill-opacity="1.0" rx="2"/>
<rect x="583.7" y="289.8" width="40.4" height="20.2" fill="#c792ea" fill-opacity="0.8" rx="2"/>
<text x="603.9" y="326.0" fill="#968ba1" font-size="10.5" text-anchor="middle">14.78</text>
<rect x="601.9" y="128.7" width="4.0" height="4.0" fill="#7ee0a8" fill-opacity="1.0" rx="2"/>
<rect x="630.1" y="294.5" width="40.4" height="15.5" fill="#c792ea" fill-opacity="0.8" rx="2"/>
<text x="650.4" y="326.0" fill="#968ba1" font-size="10.5" text-anchor="middle">4</text>
<rect x="648.4" y="124.7" width="4.0" height="4.0" fill="#7ee0a8" fill-opacity="1.0" rx="2"/>
<rect x="676.6" y="294.9" width="40.4" height="15.1" fill="#c792ea" fill-opacity="0.8" rx="2"/>
<text x="696.8" y="326.0" fill="#968ba1" font-size="10.5" text-anchor="middle">5.12</text>
<rect x="694.8" y="120.9" width="4.0" height="4.0" fill="#7ee0a8" fill-opacity="1.0" rx="2"/>
<text x="696.8" y="114.9" fill="#7ee0a8" font-size="11" font-weight="700" text-anchor="middle">74%</text>
<line x1="70.0" y1="310.0" x2="720.0" y2="310.0" stroke="#968ba1" stroke-width="1"/>
<text x="395.0" y="360.0" fill="#dcd7e3" font-size="12" text-anchor="middle">S = W/L value (rank order)</text>
<text x="76.0" y="68.0" fill="#968ba1" font-size="11.5" text-anchor="start">bars: device count · dots: cumulative %</text>
</svg>