<svg xmlns="http://www.w3.org/2000/svg" viewBox="0 0 780 380" font-family="Segoe UI,Roboto,sans-serif">
<rect width="780" height="380" fill="#100f15"/>
<text x="390.0" y="26" fill="#dcd7e3" font-size="16" font-weight="700" text-anchor="middle">2A03: the strength vocabulary — top W/L values, cumulative coverage</text>
<rect x="73.0" y="56.0" width="40.4" height="254.0" fill="#c792ea" fill-opacity="0.8" rx="2"/>
<text x="93.2" y="326.0" fill="#968ba1" font-size="10.5" text-anchor="middle">1.67</text>
<rect x="91.2" y="270.8" width="4.0" height="4.0" fill="#7ee0a8" fill-opacity="1.0" rx="2"/>
<text x="93.2" y="264.8" fill="#7ee0a8" font-size="11" font-weight="700" text-anchor="middle">15%</text>
<rect x="119.4" y="80.6" width="40.4" height="229.4" fill="#c792ea" fill-opacity="0.8" rx="2"/>
<text x="139.6" y="326.0" fill="#968ba1" font-size="10.5" text-anchor="middle">2.33</text>
<rect x="137.6" y="237.2" width="4.0" height="4.0" fill="#7ee0a8" fill-opacity="1.0" rx="2"/>
<rect x="165.9" y="224.8" width="40.4" height="85.2" fill="#c792ea" fill-opacity="0.8" rx="2"/>
<text x="186.1" y="326.0" fill="#968ba1" font-size="10.5" text-anchor="middle">4.33</text>
<rect x="184.1" y="224.7" width="4.0" height="4.0" fill="#7ee0a8" fill-opacity="1.0" rx="2"/>
<rect x="212.3" y="255.5" width="40.4" height="54.5" fill="#c792ea" fill-opacity="0.8" rx="2"/>
<text x="232.5" y="326.0" fill="#968ba1" font-size="10.5" text-anchor="middle">3</text>
<rect x="230.5" y="216.7" width="4.0" height="4.0" fill="#7ee0a8" fill-opacity="1.0" rx="2"/>
<rect x="258.7" y="259.5" width="40.4" height="50.5" fill="#c792ea" fill-opacity="0.8" rx="2"/>
<text x="278.9" y="326.0" fill="#968ba1" font-size="10.5" text-anchor="middle">5.67</text>
<rect x="276.9" y="209.3" width="4.0" height="4.0" fill="#7ee0a8" fill-opacity="1.0" rx="2"/>
<text x="278.9" y="203.3" fill="#7ee0a8" font-size="11" font-weight="700" text-anchor="middle">39%</text>
<rect x="305.1" y="261.0" width="40.4" height="49.0" fill="#c792ea" fill-opacity="0.8" rx="2"/>
<text x="325.4" y="326.0" fill="#968ba1" font-size="10.5" text-anchor="middle">4</text>
<rect x="323.4" y="202.1" width="4.0" height="4.0" fill="#7ee0a8" fill-opacity="1.0" rx="2"/>
<rect x="351.6" y="265.3" width="40.4" height="44.7" fill="#c792ea" fill-opacity="0.8" rx="2"/>
<text x="371.8" y="326.0" fill="#968ba1" font-size="10.5" text-anchor="middle">2</text>
<rect x="369.8" y="195.6" width="4.0" height="4.0" fill="#7ee0a8" fill-opacity="1.0" rx="2"/>
<rect x="398.0" y="265.8" width="40.4" height="44.2" fill="#c792ea" fill-opacity="0.8" rx="2"/>
<text x="418.2" y="326.0" fill="#968ba1" font-size="10.5" text-anchor="middle">12.86</text>
<rect x="416.2" y="189.1" width="4.0" height="4.0" fill="#7ee0a8" fill-opacity="1.0" rx="2"/>
<rect x="444.4" y="267.7" width="40.4" height="42.3" fill="#c792ea" fill-opacity="0.8" rx="2"/>
<text x="464.6" y="326.0" fill="#968ba1" font-size="10.5" text-anchor="middle">1.4</text>
<rect x="462.6" y="182.9" width="4.0" height="4.0" fill="#7ee0a8" fill-opacity="1.0" rx="2"/>
<rect x="490.9" y="269.8" width="40.4" height="40.2" fill="#c792ea" fill-opacity="0.8" rx="2"/>
<text x="511.1" y="326.0" fill="#968ba1" font-size="10.5" text-anchor="middle">4.67</text>
<rect x="509.1" y="177.0" width="4.0" height="4.0" fill="#7ee0a8" fill-opacity="1.0" rx="2"/>
<text x="511.1" y="171.0" fill="#7ee0a8" font-size="11" font-weight="700" text-anchor="middle">52%</text>
<rect x="537.3" y="270.1" width="40.4" height="39.9" fill="#c792ea" fill-opacity="0.8" rx="2"/>
<text x="557.5" y="326.0" fill="#968ba1" font-size="10.5" text-anchor="middle">13</text>
<rect x="555.5" y="171.2" width="4.0" height="4.0" fill="#7ee0a8" fill-opacity="1.0" rx="2"/>
<rect x="583.7" y="277.8" width="40.4" height="32.2" fill="#c792ea" fill-opacity="0.8" rx="2"/>
<text x="603.9" y="326.0" fill="#968ba1" font-size="10.5" text-anchor="middle">5.33</text>
<rect x="601.9" y="166.5" width="4.0" height="4.0" fill="#7ee0a8" fill-opacity="1.0" rx="2"/>
<rect x="630.1" y="288.5" width="40.4" height="21.5" fill="#c792ea" fill-opacity="0.8" rx="2"/>
<text x="650.4" y="326.0" fill="#968ba1" font-size="10.5" text-anchor="middle">2.67</text>
<rect x="648.4" y="163.3" width="4.0" height="4.0" fill="#7ee0a8" fill-opacity="1.0" rx="2"/>
<rect x="676.6" y="294.9" width="40.4" height="15.1" fill="#c792ea" fill-opacity="0.8" rx="2"/>
<text x="696.8" y="326.0" fill="#968ba1" font-size="10.5" text-anchor="middle">5</text>
<rect x="694.8" y="161.1" width="4.0" height="4.0" fill="#7ee0a8" fill-opacity="1.0" rx="2"/>
<text x="696.8" y="155.1" fill="#7ee0a8" font-size="11" font-weight="700" text-anchor="middle">58%</text>
<line x1="70.0" y1="310.0" x2="720.0" y2="310.0" stroke="#968ba1" stroke-width="1"/>
<text x="395.0" y="360.0" fill="#dcd7e3" font-size="12" text-anchor="middle">S = W/L value (rank order)</text>
<text x="76.0" y="68.0" fill="#968ba1" font-size="11.5" text-anchor="start">bars: device count · dots: cumulative %</text>
</svg>