<svg xmlns="http://www.w3.org/2000/svg" viewBox="0 0 780 360" font-family="Segoe UI,Roboto,sans-serif">
<rect width="780" height="360" fill="#100f15"/>
<text x="390.0" y="26" fill="#dcd7e3" font-size="16" font-weight="700" text-anchor="middle">2C02: driver-vs-driver fight sites — up-strength : down-strength</text>
<rect x="71.0" y="279.1" width="46.6" height="10.9" fill="#7ee0a8" fill-opacity="0.85" rx="2"/>
<rect x="119.6" y="290.0" width="46.6" height="0.0" fill="#7ee0a8" fill-opacity="0.85" rx="2"/>
<rect x="168.1" y="156.7" width="46.6" height="133.3" fill="#7ee0a8" fill-opacity="0.85" rx="2"/>
<rect x="216.7" y="211.1" width="46.6" height="78.9" fill="#7ee0a8" fill-opacity="0.85" rx="2"/>
<rect x="265.3" y="189.3" width="46.6" height="100.7" fill="#7ee0a8" fill-opacity="0.85" rx="2"/>
<rect x="313.9" y="287.3" width="46.6" height="2.7" fill="#7ee0a8" fill-opacity="0.85" rx="2"/>
<rect x="362.4" y="287.3" width="46.6" height="2.7" fill="#7ee0a8" fill-opacity="0.85" rx="2"/>
<rect x="411.0" y="271.0" width="46.6" height="19.0" fill="#7ee0a8" fill-opacity="0.85" rx="2"/>
<rect x="459.6" y="279.1" width="46.6" height="10.9" fill="#ff6b6b" fill-opacity="0.85" rx="2"/>
<rect x="508.1" y="235.6" width="46.6" height="54.4" fill="#ff6b6b" fill-opacity="0.85" rx="2"/>
<rect x="556.7" y="56.0" width="46.6" height="234.0" fill="#ff6b6b" fill-opacity="0.85" rx="2"/>
<rect x="605.3" y="279.1" width="46.6" height="10.9" fill="#ff6b6b" fill-opacity="0.85" rx="2"/>
<rect x="653.9" y="268.2" width="46.6" height="21.8" fill="#7ee0a8" fill-opacity="0.85" rx="2"/>
<rect x="702.4" y="290.0" width="46.6" height="0.0" fill="#7ee0a8" fill-opacity="0.85" rx="2"/>
<line x1="555.7" y1="56.0" x2="555.7" y2="290.0" stroke="#ffb454" stroke-width="2"/>
<text x="555.7" y="52.0" fill="#ffb454" font-size="11.5" font-weight="700" text-anchor="middle">1:1</text>
<text x="70.0" y="306.0" fill="#968ba1" font-size="10.5" text-anchor="middle">1/32</text>
<text x="167.1" y="306.0" fill="#968ba1" font-size="10.5" text-anchor="middle">1/16</text>
<text x="264.3" y="306.0" fill="#968ba1" font-size="10.5" text-anchor="middle">1/8</text>
<text x="361.4" y="306.0" fill="#968ba1" font-size="10.5" text-anchor="middle">1/4</text>
<text x="458.6" y="306.0" fill="#968ba1" font-size="10.5" text-anchor="middle">1/2</text>
<text x="555.7" y="306.0" fill="#968ba1" font-size="10.5" text-anchor="middle">1</text>
<text x="652.9" y="306.0" fill="#968ba1" font-size="10.5" text-anchor="middle">2</text>
<text x="750.0" y="306.0" fill="#968ba1" font-size="10.5" text-anchor="middle">4</text>
<line x1="70.0" y1="290.0" x2="750.0" y2="290.0" stroke="#968ba1" stroke-width="1"/>
<text x="410.0" y="340.0" fill="#dcd7e3" font-size="12" text-anchor="middle">S_up / S_down (red = within 2x — GND-wins is a coin-toss call here)</text>
</svg>