<svg xmlns="http://www.w3.org/2000/svg" viewBox="0 0 780 430" font-family="Segoe UI,Roboto,sans-serif">
<rect width="780" height="430" fill="#100f15"/>
<text x="390.0" y="26" fill="#dcd7e3" font-size="16" font-weight="700" text-anchor="middle">2A03: drive strength S = W/L by device class (log2 bins)</text>
<rect x="171.0" y="161.3" width="56.0" height="0.0" fill="#ff6b6b" fill-opacity="0.8" rx="2"/>
<rect x="229.0" y="161.3" width="56.0" height="0.0" fill="#ff6b6b" fill-opacity="0.8" rx="2"/>
<rect x="287.0" y="126.5" width="56.0" height="34.8" fill="#ff6b6b" fill-opacity="0.8" rx="2"/>
<rect x="345.0" y="76.0" width="56.0" height="85.3" fill="#ff6b6b" fill-opacity="0.8" rx="2"/>
<rect x="403.0" y="81.9" width="56.0" height="79.5" fill="#ff6b6b" fill-opacity="0.8" rx="2"/>
<rect x="461.0" y="119.1" width="56.0" height="42.2" fill="#ff6b6b" fill-opacity="0.8" rx="2"/>
<rect x="519.0" y="148.9" width="56.0" height="12.4" fill="#ff6b6b" fill-opacity="0.8" rx="2"/>
<rect x="577.0" y="157.2" width="56.0" height="4.2" fill="#ff6b6b" fill-opacity="0.8" rx="2"/>
<rect x="635.0" y="161.1" width="56.0" height="0.3" fill="#ff6b6b" fill-opacity="0.8" rx="2"/>
<rect x="693.0" y="161.3" width="56.0" height="0.0" fill="#ff6b6b" fill-opacity="0.8" rx="2"/>
<text x="160.0" y="117.7" fill="#dcd7e3" font-size="12.5" font-weight="700" text-anchor="end">pulldown (7149)</text>
<line x1="170.0" y1="161.3" x2="750.0" y2="161.3" stroke="#968ba1" stroke-width="1"/>
<rect x="171.0" y="268.4" width="56.0" height="4.2" fill="#ffb454" fill-opacity="0.8" rx="2"/>
<rect x="229.0" y="226.4" width="56.0" height="46.2" fill="#ffb454" fill-opacity="0.8" rx="2"/>
<rect x="287.0" y="239.8" width="56.0" height="32.9" fill="#ffb454" fill-opacity="0.8" rx="2"/>
<rect x="345.0" y="238.1" width="56.0" height="34.5" fill="#ffb454" fill-opacity="0.8" rx="2"/>
<rect x="403.0" y="268.4" width="56.0" height="4.2" fill="#ffb454" fill-opacity="0.8" rx="2"/>
<rect x="461.0" y="187.3" width="56.0" height="85.3" fill="#ffb454" fill-opacity="0.8" rx="2"/>
<rect x="519.0" y="249.5" width="56.0" height="23.1" fill="#ffb454" fill-opacity="0.8" rx="2"/>
<rect x="577.0" y="262.9" width="56.0" height="9.8" fill="#ffb454" fill-opacity="0.8" rx="2"/>
<rect x="635.0" y="263.5" width="56.0" height="9.1" fill="#ffb454" fill-opacity="0.8" rx="2"/>
<rect x="693.0" y="272.3" width="56.0" height="0.3" fill="#ffb454" fill-opacity="0.8" rx="2"/>
<text x="160.0" y="229.0" fill="#dcd7e3" font-size="12.5" font-weight="700" text-anchor="end">to-vcc (767)</text>
<line x1="170.0" y1="272.7" x2="750.0" y2="272.7" stroke="#968ba1" stroke-width="1"/>
<rect x="171.0" y="384.0" width="56.0" height="0.0" fill="#7ee0a8" fill-opacity="0.8" rx="2"/>
<rect x="229.0" y="383.9" width="56.0" height="0.1" fill="#7ee0a8" fill-opacity="0.8" rx="2"/>
<rect x="287.0" y="298.7" width="56.0" height="85.3" fill="#7ee0a8" fill-opacity="0.8" rx="2"/>
<rect x="345.0" y="331.6" width="56.0" height="52.4" fill="#7ee0a8" fill-opacity="0.8" rx="2"/>
<rect x="403.0" y="358.9" width="56.0" height="25.1" fill="#7ee0a8" fill-opacity="0.8" rx="2"/>
<rect x="461.0" y="375.3" width="56.0" height="8.7" fill="#7ee0a8" fill-opacity="0.8" rx="2"/>
<rect x="519.0" y="383.5" width="56.0" height="0.5" fill="#7ee0a8" fill-opacity="0.8" rx="2"/>
<rect x="577.0" y="383.9" width="56.0" height="0.1" fill="#7ee0a8" fill-opacity="0.8" rx="2"/>
<rect x="635.0" y="384.0" width="56.0" height="0.0" fill="#7ee0a8" fill-opacity="0.8" rx="2"/>
<rect x="693.0" y="384.0" width="56.0" height="0.0" fill="#7ee0a8" fill-opacity="0.8" rx="2"/>
<text x="160.0" y="340.3" fill="#dcd7e3" font-size="12.5" font-weight="700" text-anchor="end">pass (2869)</text>
<line x1="170.0" y1="384.0" x2="750.0" y2="384.0" stroke="#968ba1" stroke-width="1"/>
<text x="170.0" y="414.0" fill="#968ba1" font-size="10.5" text-anchor="middle">2^-2</text>
<text x="228.0" y="414.0" fill="#968ba1" font-size="10.5" text-anchor="middle">2^-1</text>
<text x="286.0" y="414.0" fill="#968ba1" font-size="10.5" text-anchor="middle">2^0</text>
<text x="344.0" y="414.0" fill="#968ba1" font-size="10.5" text-anchor="middle">2^1</text>
<text x="402.0" y="414.0" fill="#968ba1" font-size="10.5" text-anchor="middle">2^2</text>
<text x="460.0" y="414.0" fill="#968ba1" font-size="10.5" text-anchor="middle">2^3</text>
<text x="518.0" y="414.0" fill="#968ba1" font-size="10.5" text-anchor="middle">2^4</text>
<text x="576.0" y="414.0" fill="#968ba1" font-size="10.5" text-anchor="middle">2^5</text>
<text x="634.0" y="414.0" fill="#968ba1" font-size="10.5" text-anchor="middle">2^6</text>
<text x="692.0" y="414.0" fill="#968ba1" font-size="10.5" text-anchor="middle">2^7</text>
<text x="750.0" y="414.0" fill="#968ba1" font-size="10.5" text-anchor="middle">2^8</text>
<text x="460.0" y="428.0" fill="#dcd7e3" font-size="12" text-anchor="middle">S = W/L (die units)</text>
</svg>