<svg xmlns="http://www.w3.org/2000/svg" viewBox="0 0 760 360" font-family="Segoe UI,Roboto,sans-serif">
<rect width="760" height="360" fill="#100f15"/>
<text x="380.0" y="26" fill="#dcd7e3" font-size="16" font-weight="700" text-anchor="middle">2A03: how decisive is the physics verdict?  d = |Ca-Cb| / (Ca+Cb)</text>
<rect x="71.0" y="232.0" width="31.5" height="58.0" fill="#7ee0a8" fill-opacity="0.3" rx="2"/>
<rect x="78.4" y="125.3" width="16.8" height="164.7" fill="#ff6b6b" fill-opacity="0.85" rx="2"/>
<rect x="104.5" y="251.8" width="31.5" height="38.2" fill="#7ee0a8" fill-opacity="0.3" rx="2"/>
<rect x="111.9" y="61.2" width="16.8" height="228.8" fill="#ff6b6b" fill-opacity="0.85" rx="2"/>
<rect x="138.0" y="273.2" width="31.5" height="16.8" fill="#7ee0a8" fill-opacity="0.3" rx="2"/>
<rect x="145.4" y="211.9" width="16.8" height="78.1" fill="#ff6b6b" fill-opacity="0.85" rx="2"/>
<rect x="171.5" y="267.9" width="31.5" height="22.1" fill="#7ee0a8" fill-opacity="0.3" rx="2"/>
<rect x="178.9" y="214.7" width="16.8" height="75.3" fill="#ff6b6b" fill-opacity="0.85" rx="2"/>
<rect x="205.0" y="263.3" width="31.5" height="26.7" fill="#7ee0a8" fill-opacity="0.3" rx="2"/>
<rect x="212.4" y="239.8" width="16.8" height="50.2" fill="#ff6b6b" fill-opacity="0.85" rx="2"/>
<rect x="238.5" y="258.7" width="31.5" height="31.3" fill="#7ee0a8" fill-opacity="0.3" rx="2"/>
<rect x="245.9" y="242.6" width="16.8" height="47.4" fill="#ff6b6b" fill-opacity="0.85" rx="2"/>
<rect x="272.0" y="245.7" width="31.5" height="44.3" fill="#7ee0a8" fill-opacity="0.3" rx="2"/>
<rect x="279.4" y="217.4" width="16.8" height="72.6" fill="#ff6b6b" fill-opacity="0.85" rx="2"/>
<rect x="305.5" y="217.4" width="31.5" height="72.6" fill="#7ee0a8" fill-opacity="0.3" rx="2"/>
<rect x="312.9" y="239.8" width="16.8" height="50.2" fill="#ff6b6b" fill-opacity="0.85" rx="2"/>
<rect x="339.0" y="165.5" width="31.5" height="124.5" fill="#7ee0a8" fill-opacity="0.3" rx="2"/>
<rect x="346.4" y="259.3" width="16.8" height="30.7" fill="#ff6b6b" fill-opacity="0.85" rx="2"/>
<rect x="372.5" y="245.7" width="31.5" height="44.3" fill="#7ee0a8" fill-opacity="0.3" rx="2"/>
<rect x="379.9" y="50.0" width="16.8" height="240.0" fill="#ff6b6b" fill-opacity="0.85" rx="2"/>
<rect x="406.0" y="228.1" width="31.5" height="61.9" fill="#7ee0a8" fill-opacity="0.3" rx="2"/>
<rect x="413.4" y="100.2" width="16.8" height="189.8" fill="#ff6b6b" fill-opacity="0.85" rx="2"/>
<rect x="439.5" y="229.7" width="31.5" height="60.3" fill="#7ee0a8" fill-opacity="0.3" rx="2"/>
<rect x="446.9" y="267.7" width="16.8" height="22.3" fill="#ff6b6b" fill-opacity="0.85" rx="2"/>
<rect x="473.0" y="197.6" width="31.5" height="92.4" fill="#7ee0a8" fill-opacity="0.3" rx="2"/>
<rect x="480.4" y="273.3" width="16.8" height="16.7" fill="#ff6b6b" fill-opacity="0.85" rx="2"/>
<rect x="506.5" y="139.6" width="31.5" height="150.4" fill="#7ee0a8" fill-opacity="0.3" rx="2"/>
<rect x="513.9" y="273.3" width="16.8" height="16.7" fill="#ff6b6b" fill-opacity="0.85" rx="2"/>
<rect x="540.0" y="205.2" width="31.5" height="84.8" fill="#7ee0a8" fill-opacity="0.3" rx="2"/>
<rect x="547.4" y="231.4" width="16.8" height="58.6" fill="#ff6b6b" fill-opacity="0.85" rx="2"/>
<rect x="573.5" y="213.6" width="31.5" height="76.4" fill="#7ee0a8" fill-opacity="0.3" rx="2"/>
<rect x="580.9" y="284.4" width="16.8" height="5.6" fill="#ff6b6b" fill-opacity="0.85" rx="2"/>
<rect x="607.0" y="176.2" width="31.5" height="113.8" fill="#7ee0a8" fill-opacity="0.3" rx="2"/>
<rect x="614.4" y="290.0" width="16.8" height="0.0" fill="#ff6b6b" fill-opacity="0.85" rx="2"/>
<rect x="640.5" y="256.4" width="31.5" height="33.6" fill="#7ee0a8" fill-opacity="0.3" rx="2"/>
<rect x="647.9" y="290.0" width="16.8" height="0.0" fill="#ff6b6b" fill-opacity="0.85" rx="2"/>
<rect x="674.0" y="225.1" width="31.5" height="64.9" fill="#7ee0a8" fill-opacity="0.3" rx="2"/>
<rect x="681.4" y="290.0" width="16.8" height="0.0" fill="#ff6b6b" fill-opacity="0.85" rx="2"/>
<rect x="707.5" y="159.4" width="31.5" height="130.6" fill="#7ee0a8" fill-opacity="0.3" rx="2"/>
<rect x="714.9" y="290.0" width="16.8" height="0.0" fill="#ff6b6b" fill-opacity="0.85" rx="2"/>
<line x1="70.0" y1="290.0" x2="740.0" y2="290.0" stroke="#968ba1" stroke-width="1"/>
<text x="70.0" y="308.0" fill="#968ba1" font-size="11" text-anchor="middle">0.0</text>
<text x="204.0" y="308.0" fill="#968ba1" font-size="11" text-anchor="middle">0.2</text>
<text x="338.0" y="308.0" fill="#968ba1" font-size="11" text-anchor="middle">0.4</text>
<text x="472.0" y="308.0" fill="#968ba1" font-size="11" text-anchor="middle">0.6</text>
<text x="606.0" y="308.0" fill="#968ba1" font-size="11" text-anchor="middle">0.8</text>
<text x="740.0" y="308.0" fill="#968ba1" font-size="11" text-anchor="middle">1.0</text>
<text x="405.0" y="330.0" fill="#dcd7e3" font-size="13" text-anchor="middle">d  (0 = dead heat, 1 = one side utterly dominates)</text>
<rect x="80.0" y="58.0" width="14.0" height="10.0" fill="#7ee0a8" fill-opacity="0.3" rx="2"/>
<text x="100.0" y="67.0" fill="#968ba1" font-size="12" text-anchor="start">agreeing pairs (fraction)</text>
<rect x="80.0" y="78.0" width="14.0" height="10.0" fill="#ff6b6b" fill-opacity="0.85" rx="2"/>
<text x="100.0" y="87.0" fill="#dcd7e3" font-size="12" text-anchor="start">FLIPPED pairs (fraction)</text>
</svg>