<svg xmlns="http://www.w3.org/2000/svg" viewBox="0 0 760 360" font-family="Segoe UI,Roboto,sans-serif">
<rect width="760" height="360" fill="#100f15"/>
<text x="380.0" y="26" fill="#dcd7e3" font-size="16" font-weight="700" text-anchor="middle">2C02: how decisive is the physics verdict?  d = |Ca-Cb| / (Ca+Cb)</text>
<rect x="71.0" y="288.7" width="31.5" height="1.3" fill="#7ee0a8" fill-opacity="0.3" rx="2"/>
<rect x="78.4" y="218.7" width="16.8" height="71.3" fill="#ff6b6b" fill-opacity="0.85" rx="2"/>
<rect x="104.5" y="288.7" width="31.5" height="1.3" fill="#7ee0a8" fill-opacity="0.3" rx="2"/>
<rect x="111.9" y="263.8" width="16.8" height="26.2" fill="#ff6b6b" fill-opacity="0.85" rx="2"/>
<rect x="138.0" y="286.7" width="31.5" height="3.3" fill="#7ee0a8" fill-opacity="0.3" rx="2"/>
<rect x="145.4" y="225.3" width="16.8" height="64.7" fill="#ff6b6b" fill-opacity="0.85" rx="2"/>
<rect x="171.5" y="288.4" width="31.5" height="1.6" fill="#7ee0a8" fill-opacity="0.3" rx="2"/>
<rect x="178.9" y="236.7" width="16.8" height="53.3" fill="#ff6b6b" fill-opacity="0.85" rx="2"/>
<rect x="205.0" y="287.4" width="31.5" height="2.6" fill="#7ee0a8" fill-opacity="0.3" rx="2"/>
<rect x="212.4" y="263.8" width="16.8" height="26.2" fill="#ff6b6b" fill-opacity="0.85" rx="2"/>
<rect x="238.5" y="284.6" width="31.5" height="5.4" fill="#7ee0a8" fill-opacity="0.3" rx="2"/>
<rect x="245.9" y="278.5" width="16.8" height="11.5" fill="#ff6b6b" fill-opacity="0.85" rx="2"/>
<rect x="272.0" y="283.9" width="31.5" height="6.1" fill="#7ee0a8" fill-opacity="0.3" rx="2"/>
<rect x="279.4" y="269.5" width="16.8" height="20.5" fill="#ff6b6b" fill-opacity="0.85" rx="2"/>
<rect x="305.5" y="277.1" width="31.5" height="12.9" fill="#7ee0a8" fill-opacity="0.3" rx="2"/>
<rect x="312.9" y="265.4" width="16.8" height="24.6" fill="#ff6b6b" fill-opacity="0.85" rx="2"/>
<rect x="339.0" y="282.8" width="31.5" height="7.2" fill="#7ee0a8" fill-opacity="0.3" rx="2"/>
<rect x="346.4" y="271.2" width="16.8" height="18.8" fill="#ff6b6b" fill-opacity="0.85" rx="2"/>
<rect x="372.5" y="288.1" width="31.5" height="1.9" fill="#7ee0a8" fill-opacity="0.3" rx="2"/>
<rect x="379.9" y="285.9" width="16.8" height="4.1" fill="#ff6b6b" fill-opacity="0.85" rx="2"/>
<rect x="406.0" y="288.4" width="31.5" height="1.6" fill="#7ee0a8" fill-opacity="0.3" rx="2"/>
<rect x="413.4" y="279.3" width="16.8" height="10.7" fill="#ff6b6b" fill-opacity="0.85" rx="2"/>
<rect x="439.5" y="288.3" width="31.5" height="1.7" fill="#7ee0a8" fill-opacity="0.3" rx="2"/>
<rect x="446.9" y="269.5" width="16.8" height="20.5" fill="#ff6b6b" fill-opacity="0.85" rx="2"/>
<rect x="473.0" y="264.1" width="31.5" height="25.9" fill="#7ee0a8" fill-opacity="0.3" rx="2"/>
<rect x="480.4" y="290.0" width="16.8" height="0.0" fill="#ff6b6b" fill-opacity="0.85" rx="2"/>
<rect x="506.5" y="50.0" width="31.5" height="240.0" fill="#7ee0a8" fill-opacity="0.3" rx="2"/>
<rect x="513.9" y="290.0" width="16.8" height="0.0" fill="#ff6b6b" fill-opacity="0.85" rx="2"/>
<rect x="540.0" y="227.1" width="31.5" height="62.9" fill="#7ee0a8" fill-opacity="0.3" rx="2"/>
<rect x="547.4" y="231.0" width="16.8" height="59.0" fill="#ff6b6b" fill-opacity="0.85" rx="2"/>
<rect x="573.5" y="285.2" width="31.5" height="4.8" fill="#7ee0a8" fill-opacity="0.3" rx="2"/>
<rect x="580.9" y="282.6" width="16.8" height="7.4" fill="#ff6b6b" fill-opacity="0.85" rx="2"/>
<rect x="607.0" y="277.9" width="31.5" height="12.1" fill="#7ee0a8" fill-opacity="0.3" rx="2"/>
<rect x="614.4" y="285.9" width="16.8" height="4.1" fill="#ff6b6b" fill-opacity="0.85" rx="2"/>
<rect x="640.5" y="276.8" width="31.5" height="13.2" fill="#7ee0a8" fill-opacity="0.3" rx="2"/>
<rect x="647.9" y="289.2" width="16.8" height="0.8" fill="#ff6b6b" fill-opacity="0.85" rx="2"/>
<rect x="674.0" y="278.8" width="31.5" height="11.2" fill="#7ee0a8" fill-opacity="0.3" rx="2"/>
<rect x="681.4" y="290.0" width="16.8" height="0.0" fill="#ff6b6b" fill-opacity="0.85" rx="2"/>
<rect x="707.5" y="283.4" width="31.5" height="6.6" fill="#7ee0a8" fill-opacity="0.3" rx="2"/>
<rect x="714.9" y="290.0" width="16.8" height="0.0" fill="#ff6b6b" fill-opacity="0.85" rx="2"/>
<line x1="70.0" y1="290.0" x2="740.0" y2="290.0" stroke="#968ba1" stroke-width="1"/>
<text x="70.0" y="308.0" fill="#968ba1" font-size="11" text-anchor="middle">0.0</text>
<text x="204.0" y="308.0" fill="#968ba1" font-size="11" text-anchor="middle">0.2</text>
<text x="338.0" y="308.0" fill="#968ba1" font-size="11" text-anchor="middle">0.4</text>
<text x="472.0" y="308.0" fill="#968ba1" font-size="11" text-anchor="middle">0.6</text>
<text x="606.0" y="308.0" fill="#968ba1" font-size="11" text-anchor="middle">0.8</text>
<text x="740.0" y="308.0" fill="#968ba1" font-size="11" text-anchor="middle">1.0</text>
<text x="405.0" y="330.0" fill="#dcd7e3" font-size="13" text-anchor="middle">d  (0 = dead heat, 1 = one side utterly dominates)</text>
<rect x="80.0" y="58.0" width="14.0" height="10.0" fill="#7ee0a8" fill-opacity="0.3" rx="2"/>
<text x="100.0" y="67.0" fill="#968ba1" font-size="12" text-anchor="start">agreeing pairs (fraction)</text>
<rect x="80.0" y="78.0" width="14.0" height="10.0" fill="#ff6b6b" fill-opacity="0.85" rx="2"/>
<text x="100.0" y="87.0" fill="#dcd7e3" font-size="12" text-anchor="start">FLIPPED pairs (fraction)</text>
</svg>