<svg xmlns="http://www.w3.org/2000/svg" viewBox="0 0 780 380" font-family="Segoe UI,Roboto,sans-serif">
<rect width="780" height="380" fill="#100f15"/>
<text x="390.0" y="26" fill="#dcd7e3" font-size="16" font-weight="700" text-anchor="middle">2C02: fall delay per driven net (gate units, log2 bins)</text>
<rect x="71.0" y="308.3" width="18.0" height="1.7" fill="#968ba1" fill-opacity="0.85" rx="2"/>
<rect x="91.0" y="308.6" width="18.0" height="1.4" fill="#968ba1" fill-opacity="0.85" rx="2"/>
<rect x="111.0" y="306.4" width="18.0" height="3.6" fill="#968ba1" fill-opacity="0.85" rx="2"/>
<rect x="131.0" y="309.1" width="18.0" height="0.9" fill="#968ba1" fill-opacity="0.85" rx="2"/>
<rect x="151.0" y="302.6" width="18.0" height="7.4" fill="#968ba1" fill-opacity="0.85" rx="2"/>
<rect x="171.0" y="291.9" width="18.0" height="18.1" fill="#968ba1" fill-opacity="0.85" rx="2"/>
<rect x="191.0" y="284.3" width="18.0" height="25.7" fill="#7ee0a8" fill-opacity="0.85" rx="2"/>
<rect x="211.0" y="56.0" width="18.0" height="254.0" fill="#7ee0a8" fill-opacity="0.85" rx="2"/>
<rect x="231.0" y="157.9" width="18.0" height="152.1" fill="#7ee0a8" fill-opacity="0.85" rx="2"/>
<rect x="251.0" y="268.5" width="18.0" height="41.5" fill="#7ee0a8" fill-opacity="0.85" rx="2"/>
<rect x="271.0" y="284.9" width="18.0" height="25.1" fill="#ffb454" fill-opacity="0.85" rx="2"/>
<rect x="291.0" y="280.4" width="18.0" height="29.6" fill="#ffb454" fill-opacity="0.85" rx="2"/>
<rect x="311.0" y="287.2" width="18.0" height="22.8" fill="#ffb454" fill-opacity="0.85" rx="2"/>
<rect x="331.0" y="299.2" width="18.0" height="10.8" fill="#ffb454" fill-opacity="0.85" rx="2"/>
<rect x="351.0" y="304.1" width="18.0" height="5.9" fill="#ff6b6b" fill-opacity="0.85" rx="2"/>
<rect x="371.0" y="305.2" width="18.0" height="4.8" fill="#ff6b6b" fill-opacity="0.85" rx="2"/>
<rect x="391.0" y="307.5" width="18.0" height="2.5" fill="#ff6b6b" fill-opacity="0.85" rx="2"/>
<rect x="411.0" y="305.4" width="18.0" height="4.6" fill="#ff6b6b" fill-opacity="0.85" rx="2"/>
<rect x="431.0" y="306.5" width="18.0" height="3.5" fill="#ff6b6b" fill-opacity="0.85" rx="2"/>
<rect x="451.0" y="307.0" width="18.0" height="3.0" fill="#ff6b6b" fill-opacity="0.85" rx="2"/>
<rect x="471.0" y="304.5" width="18.0" height="5.5" fill="#ff6b6b" fill-opacity="0.85" rx="2"/>
<rect x="491.0" y="309.0" width="18.0" height="1.0" fill="#ff6b6b" fill-opacity="0.85" rx="2"/>
<rect x="511.0" y="310.0" width="18.0" height="0.0" fill="#ff6b6b" fill-opacity="0.85" rx="2"/>
<rect x="531.0" y="309.7" width="18.0" height="0.3" fill="#ff6b6b" fill-opacity="0.85" rx="2"/>
<rect x="551.0" y="310.0" width="18.0" height="0.0" fill="#ff6b6b" fill-opacity="0.85" rx="2"/>
<rect x="571.0" y="310.0" width="18.0" height="0.0" fill="#ff6b6b" fill-opacity="0.85" rx="2"/>
<rect x="591.0" y="310.0" width="18.0" height="0.0" fill="#ff6b6b" fill-opacity="0.85" rx="2"/>
<rect x="611.0" y="310.0" width="18.0" height="0.0" fill="#ff6b6b" fill-opacity="0.85" rx="2"/>
<rect x="631.0" y="310.0" width="18.0" height="0.0" fill="#ff6b6b" fill-opacity="0.85" rx="2"/>
<rect x="651.0" y="310.0" width="18.0" height="0.0" fill="#ff6b6b" fill-opacity="0.85" rx="2"/>
<rect x="671.0" y="310.0" width="18.0" height="0.0" fill="#ff6b6b" fill-opacity="0.85" rx="2"/>
<rect x="691.0" y="310.0" width="18.0" height="0.0" fill="#ff6b6b" fill-opacity="0.85" rx="2"/>
<rect x="711.0" y="310.0" width="18.0" height="0.0" fill="#ff6b6b" fill-opacity="0.85" rx="2"/>
<rect x="731.0" y="309.8" width="18.0" height="0.2" fill="#ff6b6b" fill-opacity="0.85" rx="2"/>
<text x="70.0" y="326.0" fill="#968ba1" font-size="10.5" text-anchor="middle">0.0625</text>
<text x="110.0" y="326.0" fill="#968ba1" font-size="10.5" text-anchor="middle">0.125</text>
<text x="150.0" y="326.0" fill="#968ba1" font-size="10.5" text-anchor="middle">0.25</text>
<text x="190.0" y="326.0" fill="#968ba1" font-size="10.5" text-anchor="middle">0.5</text>
<text x="230.0" y="326.0" fill="#968ba1" font-size="10.5" text-anchor="middle">1</text>
<text x="270.0" y="326.0" fill="#968ba1" font-size="10.5" text-anchor="middle">2</text>
<text x="310.0" y="326.0" fill="#968ba1" font-size="10.5" text-anchor="middle">4</text>
<text x="350.0" y="326.0" fill="#968ba1" font-size="10.5" text-anchor="middle">8</text>
<text x="390.0" y="326.0" fill="#968ba1" font-size="10.5" text-anchor="middle">16</text>
<text x="430.0" y="326.0" fill="#968ba1" font-size="10.5" text-anchor="middle">32</text>
<text x="470.0" y="326.0" fill="#968ba1" font-size="10.5" text-anchor="middle">64</text>
<text x="510.0" y="326.0" fill="#968ba1" font-size="10.5" text-anchor="middle">128</text>
<text x="550.0" y="326.0" fill="#968ba1" font-size="10.5" text-anchor="middle">256</text>
<text x="590.0" y="326.0" fill="#968ba1" font-size="10.5" text-anchor="middle">512</text>
<text x="630.0" y="326.0" fill="#968ba1" font-size="10.5" text-anchor="middle">1024</text>
<text x="670.0" y="326.0" fill="#968ba1" font-size="10.5" text-anchor="middle">2048</text>
<text x="710.0" y="326.0" fill="#968ba1" font-size="10.5" text-anchor="middle">4096</text>
<text x="750.0" y="326.0" fill="#968ba1" font-size="10.5" text-anchor="middle">8192</text>
<line x1="70.0" y1="310.0" x2="750.0" y2="310.0" stroke="#968ba1" stroke-width="1"/>
<text x="410.0" y="360.0" fill="#dcd7e3" font-size="12" text-anchor="middle">tau_fall (gate units; median driven net = 1)</text>
<rect x="78.0" y="62.0" width="12.0" height="10.0" fill="#968ba1" fill-opacity="0.85" rx="2"/>
<text x="96.0" y="71.0" fill="#968ba1" font-size="11.5" text-anchor="start">&lt; 0.5 negligible</text>
<rect x="248.0" y="62.0" width="12.0" height="10.0" fill="#7ee0a8" fill-opacity="0.85" rx="2"/>
<text x="266.0" y="71.0" fill="#968ba1" font-size="11.5" text-anchor="start">&lt; 2 ordinary</text>
<rect x="400.0" y="62.0" width="12.0" height="10.0" fill="#ffb454" fill-opacity="0.85" rx="2"/>
<text x="418.0" y="71.0" fill="#968ba1" font-size="11.5" text-anchor="start">&lt; 8 slow</text>
<rect x="522.0" y="62.0" width="12.0" height="10.0" fill="#ff6b6b" fill-opacity="0.85" rx="2"/>
<text x="540.0" y="71.0" fill="#dcd7e3" font-size="11.5" text-anchor="start">beyond: delay-island candidates</text>
</svg>