<svg xmlns="http://www.w3.org/2000/svg" viewBox="0 0 780 380" font-family="Segoe UI,Roboto,sans-serif">
<rect width="780" height="380" fill="#100f15"/>
<text x="390.0" y="26" fill="#dcd7e3" font-size="16" font-weight="700" text-anchor="middle">2A03: rise/fall asymmetry per net — and the impossible anchor</text>
<rect x="71.0" y="308.8" width="46.6" height="1.2" fill="#c792ea" fill-opacity="0.85" rx="2"/>
<rect x="119.6" y="304.5" width="46.6" height="5.5" fill="#7ee0a8" fill-opacity="0.85" rx="2"/>
<rect x="168.1" y="292.0" width="46.6" height="18.0" fill="#7ee0a8" fill-opacity="0.85" rx="2"/>
<rect x="216.7" y="308.0" width="46.6" height="2.0" fill="#c792ea" fill-opacity="0.85" rx="2"/>
<rect x="265.3" y="252.4" width="46.6" height="57.6" fill="#c792ea" fill-opacity="0.85" rx="2"/>
<rect x="313.9" y="129.9" width="46.6" height="180.1" fill="#c792ea" fill-opacity="0.85" rx="2"/>
<rect x="362.4" y="192.7" width="46.6" height="117.3" fill="#c792ea" fill-opacity="0.85" rx="2"/>
<rect x="411.0" y="56.0" width="46.6" height="254.0" fill="#c792ea" fill-opacity="0.85" rx="2"/>
<rect x="459.6" y="203.5" width="46.6" height="106.5" fill="#c792ea" fill-opacity="0.85" rx="2"/>
<rect x="508.1" y="230.9" width="46.6" height="79.1" fill="#c792ea" fill-opacity="0.85" rx="2"/>
<rect x="556.7" y="270.6" width="46.6" height="39.4" fill="#c792ea" fill-opacity="0.85" rx="2"/>
<rect x="605.3" y="299.5" width="46.6" height="10.5" fill="#c792ea" fill-opacity="0.85" rx="2"/>
<rect x="653.9" y="308.3" width="46.6" height="1.7" fill="#c792ea" fill-opacity="0.85" rx="2"/>
<rect x="702.4" y="310.0" width="46.6" height="0.0" fill="#c792ea" fill-opacity="0.85" rx="2"/>
<line x1="150.6" y1="56.0" x2="150.6" y2="310.0" stroke="#ff6b6b" stroke-width="2.5"/>
<text x="156.6" y="70.0" fill="#ff6b6b" font-size="12" font-weight="700" text-anchor="start">dot-339 anchor: rise/fall = 16/18</text>
<text x="156.6" y="88.0" fill="#ff6b6b" font-size="11" text-anchor="start">no plain net lives here -&gt; odd inversion / super-buffer</text>
<text x="70.0" y="326.0" fill="#968ba1" font-size="10.5" text-anchor="middle">0.5</text>
<text x="167.1" y="326.0" fill="#968ba1" font-size="10.5" text-anchor="middle">1</text>
<text x="264.3" y="326.0" fill="#968ba1" font-size="10.5" text-anchor="middle">2</text>
<text x="361.4" y="326.0" fill="#968ba1" font-size="10.5" text-anchor="middle">4</text>
<text x="458.6" y="326.0" fill="#968ba1" font-size="10.5" text-anchor="middle">8</text>
<text x="555.7" y="326.0" fill="#968ba1" font-size="10.5" text-anchor="middle">16</text>
<text x="652.9" y="326.0" fill="#968ba1" font-size="10.5" text-anchor="middle">32</text>
<text x="750.0" y="326.0" fill="#968ba1" font-size="10.5" text-anchor="middle">64</text>
<line x1="70.0" y1="310.0" x2="750.0" y2="310.0" stroke="#968ba1" stroke-width="1"/>
<text x="410.0" y="360.0" fill="#dcd7e3" font-size="12" text-anchor="middle">tau_rise / tau_fall (green band: symmetric totem stages)</text>
</svg>