<svg xmlns="http://www.w3.org/2000/svg" viewBox="0 0 780 380" font-family="Segoe UI,Roboto,sans-serif">
<rect width="780" height="380" fill="#100f15"/>
<text x="390.0" y="26" fill="#dcd7e3" font-size="16" font-weight="700" text-anchor="middle">2A03: fall delay per driven net (gate units, log2 bins)</text>
<rect x="71.0" y="309.2" width="16.9" height="0.8" fill="#968ba1" fill-opacity="0.85" rx="2"/>
<rect x="89.9" y="287.1" width="16.9" height="22.9" fill="#968ba1" fill-opacity="0.85" rx="2"/>
<rect x="108.8" y="290.3" width="16.9" height="19.7" fill="#968ba1" fill-opacity="0.85" rx="2"/>
<rect x="127.7" y="257.1" width="16.9" height="52.9" fill="#968ba1" fill-opacity="0.85" rx="2"/>
<rect x="146.6" y="271.3" width="16.9" height="38.7" fill="#968ba1" fill-opacity="0.85" rx="2"/>
<rect x="165.4" y="285.2" width="16.9" height="24.8" fill="#968ba1" fill-opacity="0.85" rx="2"/>
<rect x="184.3" y="275.3" width="16.9" height="34.7" fill="#968ba1" fill-opacity="0.85" rx="2"/>
<rect x="203.2" y="254.0" width="16.9" height="56.0" fill="#968ba1" fill-opacity="0.85" rx="2"/>
<rect x="222.1" y="213.4" width="16.9" height="96.6" fill="#968ba1" fill-opacity="0.85" rx="2"/>
<rect x="241.0" y="229.5" width="16.9" height="80.5" fill="#968ba1" fill-opacity="0.85" rx="2"/>
<rect x="259.9" y="184.6" width="16.9" height="125.4" fill="#7ee0a8" fill-opacity="0.85" rx="2"/>
<rect x="278.8" y="56.0" width="16.9" height="254.0" fill="#7ee0a8" fill-opacity="0.85" rx="2"/>
<rect x="297.7" y="127.0" width="16.9" height="183.0" fill="#7ee0a8" fill-opacity="0.85" rx="2"/>
<rect x="316.6" y="60.3" width="16.9" height="249.7" fill="#7ee0a8" fill-opacity="0.85" rx="2"/>
<rect x="335.4" y="192.5" width="16.9" height="117.5" fill="#ffb454" fill-opacity="0.85" rx="2"/>
<rect x="354.3" y="228.0" width="16.9" height="82.0" fill="#ffb454" fill-opacity="0.85" rx="2"/>
<rect x="373.2" y="264.2" width="16.9" height="45.8" fill="#ffb454" fill-opacity="0.85" rx="2"/>
<rect x="392.1" y="272.9" width="16.9" height="37.1" fill="#ffb454" fill-opacity="0.85" rx="2"/>
<rect x="411.0" y="276.9" width="16.9" height="33.1" fill="#ff6b6b" fill-opacity="0.85" rx="2"/>
<rect x="429.9" y="295.8" width="16.9" height="14.2" fill="#ff6b6b" fill-opacity="0.85" rx="2"/>
<rect x="448.8" y="299.7" width="16.9" height="10.3" fill="#ff6b6b" fill-opacity="0.85" rx="2"/>
<rect x="467.7" y="285.2" width="16.9" height="24.8" fill="#ff6b6b" fill-opacity="0.85" rx="2"/>
<rect x="486.6" y="305.7" width="16.9" height="4.3" fill="#ff6b6b" fill-opacity="0.85" rx="2"/>
<rect x="505.4" y="309.2" width="16.9" height="0.8" fill="#ff6b6b" fill-opacity="0.85" rx="2"/>
<rect x="524.3" y="308.8" width="16.9" height="1.2" fill="#ff6b6b" fill-opacity="0.85" rx="2"/>
<rect x="543.2" y="309.2" width="16.9" height="0.8" fill="#ff6b6b" fill-opacity="0.85" rx="2"/>
<rect x="562.1" y="307.6" width="16.9" height="2.4" fill="#ff6b6b" fill-opacity="0.85" rx="2"/>
<rect x="581.0" y="309.6" width="16.9" height="0.4" fill="#ff6b6b" fill-opacity="0.85" rx="2"/>
<rect x="599.9" y="309.6" width="16.9" height="0.4" fill="#ff6b6b" fill-opacity="0.85" rx="2"/>
<rect x="618.8" y="310.0" width="16.9" height="0.0" fill="#ff6b6b" fill-opacity="0.85" rx="2"/>
<rect x="637.7" y="310.0" width="16.9" height="0.0" fill="#ff6b6b" fill-opacity="0.85" rx="2"/>
<rect x="656.6" y="309.6" width="16.9" height="0.4" fill="#ff6b6b" fill-opacity="0.85" rx="2"/>
<rect x="675.4" y="310.0" width="16.9" height="0.0" fill="#ff6b6b" fill-opacity="0.85" rx="2"/>
<rect x="694.3" y="310.0" width="16.9" height="0.0" fill="#ff6b6b" fill-opacity="0.85" rx="2"/>
<rect x="713.2" y="309.6" width="16.9" height="0.4" fill="#ff6b6b" fill-opacity="0.85" rx="2"/>
<rect x="732.1" y="309.6" width="16.9" height="0.4" fill="#ff6b6b" fill-opacity="0.85" rx="2"/>
<text x="70.0" y="326.0" fill="#968ba1" font-size="10.5" text-anchor="middle">0.015625</text>
<text x="107.8" y="326.0" fill="#968ba1" font-size="10.5" text-anchor="middle">0.03125</text>
<text x="145.6" y="326.0" fill="#968ba1" font-size="10.5" text-anchor="middle">0.0625</text>
<text x="183.3" y="326.0" fill="#968ba1" font-size="10.5" text-anchor="middle">0.125</text>
<text x="221.1" y="326.0" fill="#968ba1" font-size="10.5" text-anchor="middle">0.25</text>
<text x="258.9" y="326.0" fill="#968ba1" font-size="10.5" text-anchor="middle">0.5</text>
<text x="296.7" y="326.0" fill="#968ba1" font-size="10.5" text-anchor="middle">1</text>
<text x="334.4" y="326.0" fill="#968ba1" font-size="10.5" text-anchor="middle">2</text>
<text x="372.2" y="326.0" fill="#968ba1" font-size="10.5" text-anchor="middle">4</text>
<text x="410.0" y="326.0" fill="#968ba1" font-size="10.5" text-anchor="middle">8</text>
<text x="447.8" y="326.0" fill="#968ba1" font-size="10.5" text-anchor="middle">16</text>
<text x="485.6" y="326.0" fill="#968ba1" font-size="10.5" text-anchor="middle">32</text>
<text x="523.3" y="326.0" fill="#968ba1" font-size="10.5" text-anchor="middle">64</text>
<text x="561.1" y="326.0" fill="#968ba1" font-size="10.5" text-anchor="middle">128</text>
<text x="598.9" y="326.0" fill="#968ba1" font-size="10.5" text-anchor="middle">256</text>
<text x="636.7" y="326.0" fill="#968ba1" font-size="10.5" text-anchor="middle">512</text>
<text x="674.4" y="326.0" fill="#968ba1" font-size="10.5" text-anchor="middle">1024</text>
<text x="712.2" y="326.0" fill="#968ba1" font-size="10.5" text-anchor="middle">2048</text>
<text x="750.0" y="326.0" fill="#968ba1" font-size="10.5" text-anchor="middle">4096</text>
<line x1="70.0" y1="310.0" x2="750.0" y2="310.0" stroke="#968ba1" stroke-width="1"/>
<text x="410.0" y="360.0" fill="#dcd7e3" font-size="12" text-anchor="middle">tau_fall (gate units; median driven net = 1)</text>
<rect x="78.0" y="62.0" width="12.0" height="10.0" fill="#968ba1" fill-opacity="0.85" rx="2"/>
<text x="96.0" y="71.0" fill="#968ba1" font-size="11.5" text-anchor="start">&lt; 0.5 negligible</text>
<rect x="248.0" y="62.0" width="12.0" height="10.0" fill="#7ee0a8" fill-opacity="0.85" rx="2"/>
<text x="266.0" y="71.0" fill="#968ba1" font-size="11.5" text-anchor="start">&lt; 2 ordinary</text>
<rect x="400.0" y="62.0" width="12.0" height="10.0" fill="#ffb454" fill-opacity="0.85" rx="2"/>
<text x="418.0" y="71.0" fill="#968ba1" font-size="11.5" text-anchor="start">&lt; 8 slow</text>
<rect x="522.0" y="62.0" width="12.0" height="10.0" fill="#ff6b6b" fill-opacity="0.85" rx="2"/>
<text x="540.0" y="71.0" fill="#dcd7e3" font-size="11.5" text-anchor="start">beyond: delay-island candidates</text>
</svg>