<svg xmlns="http://www.w3.org/2000/svg" viewBox="0 0 780 380" font-family="Segoe UI,Roboto,sans-serif">
<rect width="780" height="380" fill="#100f15"/>
<text x="390.0" y="26" fill="#dcd7e3" font-size="16" font-weight="700" text-anchor="middle">2C02: rise/fall asymmetry per net — and the impossible anchor</text>
<rect x="71.0" y="308.0" width="54.7" height="2.0" fill="#c792ea" fill-opacity="0.85" rx="2"/>
<rect x="127.7" y="300.0" width="54.7" height="10.0" fill="#7ee0a8" fill-opacity="0.85" rx="2"/>
<rect x="184.3" y="294.5" width="54.7" height="15.5" fill="#7ee0a8" fill-opacity="0.85" rx="2"/>
<rect x="241.0" y="263.2" width="54.7" height="46.8" fill="#c792ea" fill-opacity="0.85" rx="2"/>
<rect x="297.7" y="290.0" width="54.7" height="20.0" fill="#c792ea" fill-opacity="0.85" rx="2"/>
<rect x="354.3" y="56.0" width="54.7" height="254.0" fill="#c792ea" fill-opacity="0.85" rx="2"/>
<rect x="411.0" y="188.0" width="54.7" height="122.0" fill="#c792ea" fill-opacity="0.85" rx="2"/>
<rect x="467.7" y="186.3" width="54.7" height="123.7" fill="#c792ea" fill-opacity="0.85" rx="2"/>
<rect x="524.3" y="276.9" width="54.7" height="33.1" fill="#c792ea" fill-opacity="0.85" rx="2"/>
<rect x="581.0" y="302.2" width="54.7" height="7.8" fill="#c792ea" fill-opacity="0.85" rx="2"/>
<rect x="637.7" y="307.8" width="54.7" height="2.2" fill="#c792ea" fill-opacity="0.85" rx="2"/>
<rect x="694.3" y="310.0" width="54.7" height="0.0" fill="#c792ea" fill-opacity="0.85" rx="2"/>
<line x1="164.1" y1="56.0" x2="164.1" y2="310.0" stroke="#ff6b6b" stroke-width="2.5"/>
<text x="170.1" y="70.0" fill="#ff6b6b" font-size="12" font-weight="700" text-anchor="start">dot-339 anchor: rise/fall = 16/18</text>
<text x="170.1" y="88.0" fill="#ff6b6b" font-size="11" text-anchor="start">no plain net lives here -> odd inversion / super-buffer</text>
<text x="70.0" y="326.0" fill="#968ba1" font-size="10.5" text-anchor="middle">0.5</text>
<text x="183.3" y="326.0" fill="#968ba1" font-size="10.5" text-anchor="middle">1</text>
<text x="296.7" y="326.0" fill="#968ba1" font-size="10.5" text-anchor="middle">2</text>
<text x="410.0" y="326.0" fill="#968ba1" font-size="10.5" text-anchor="middle">4</text>
<text x="523.3" y="326.0" fill="#968ba1" font-size="10.5" text-anchor="middle">8</text>
<text x="636.7" y="326.0" fill="#968ba1" font-size="10.5" text-anchor="middle">16</text>
<text x="750.0" y="326.0" fill="#968ba1" font-size="10.5" text-anchor="middle">32</text>
<line x1="70.0" y1="310.0" x2="750.0" y2="310.0" stroke="#968ba1" stroke-width="1"/>
<text x="410.0" y="360.0" fill="#dcd7e3" font-size="12" text-anchor="middle">tau_rise / tau_fall (green band: symmetric totem stages)</text>
</svg>