<svg xmlns="http://www.w3.org/2000/svg" viewBox="0 0 780 360" font-family="Segoe UI,Roboto,sans-serif">
<rect width="780" height="360" fill="#100f15"/>
<text x="390.0" y="26" fill="#dcd7e3" font-size="16" font-weight="700" text-anchor="middle">2C02: closing-edge race fingerprint — shared enable/data support</text>
<rect x="74.0" y="290.0" width="77.0" height="0.0" fill="#968ba1" fill-opacity="0.85" rx="2"/>
<text x="112.5" y="308.0" fill="#968ba1" font-size="11" text-anchor="middle">0</text>
<text x="112.5" y="284.0" fill="#dcd7e3" font-size="11.5" text-anchor="middle">0</text>
<rect x="159.0" y="56.0" width="77.0" height="234.0" fill="#ff6b6b" fill-opacity="0.85" rx="2"/>
<text x="197.5" y="308.0" fill="#968ba1" font-size="11" text-anchor="middle">1</text>
<text x="197.5" y="50.0" fill="#dcd7e3" font-size="11.5" text-anchor="middle">457</text>
<rect x="244.0" y="239.3" width="77.0" height="50.7" fill="#ff6b6b" fill-opacity="0.85" rx="2"/>
<text x="282.5" y="308.0" fill="#968ba1" font-size="11" text-anchor="middle">2</text>
<text x="282.5" y="233.3" fill="#dcd7e3" font-size="11.5" text-anchor="middle">99</text>
<rect x="329.0" y="155.3" width="77.0" height="134.7" fill="#ffb454" fill-opacity="0.85" rx="2"/>
<text x="367.5" y="308.0" fill="#968ba1" font-size="11" text-anchor="middle">3-4</text>
<text x="367.5" y="149.3" fill="#dcd7e3" font-size="11.5" text-anchor="middle">263</text>
<rect x="414.0" y="91.8" width="77.0" height="198.2" fill="#ffb454" fill-opacity="0.85" rx="2"/>
<text x="452.5" y="308.0" fill="#968ba1" font-size="11" text-anchor="middle">5-8</text>
<text x="452.5" y="85.8" fill="#dcd7e3" font-size="11.5" text-anchor="middle">387</text>
<rect x="499.0" y="270.5" width="77.0" height="19.5" fill="#ffb454" fill-opacity="0.85" rx="2"/>
<text x="537.5" y="308.0" fill="#968ba1" font-size="11" text-anchor="middle">9-16</text>
<text x="537.5" y="264.5" fill="#dcd7e3" font-size="11.5" text-anchor="middle">38</text>
<rect x="584.0" y="290.0" width="77.0" height="0.0" fill="#ffb454" fill-opacity="0.85" rx="2"/>
<text x="622.5" y="308.0" fill="#968ba1" font-size="11" text-anchor="middle">17-32</text>
<text x="622.5" y="284.0" fill="#dcd7e3" font-size="11.5" text-anchor="middle">0</text>
<rect x="669.0" y="288.5" width="77.0" height="1.5" fill="#ffb454" fill-opacity="0.85" rx="2"/>
<text x="707.5" y="308.0" fill="#968ba1" font-size="11" text-anchor="middle">33+</text>
<text x="707.5" y="282.5" fill="#dcd7e3" font-size="11.5" text-anchor="middle">3</text>
<line x1="70.0" y1="290.0" x2="750.0" y2="290.0" stroke="#968ba1" stroke-width="1"/>
<text x="410.0" y="338.0" fill="#dcd7e3" font-size="12" text-anchor="middle">|enable-cone  ∩  data-cone|   (0 = clean latch; 1-4 = tightest races, red)</text>
</svg>