<svg xmlns="http://www.w3.org/2000/svg" viewBox="0 0 780 308" font-family="Segoe UI,Roboto,sans-serif">
<rect width="780" height="308" fill="#100f15"/>
<text x="390.0" y="26" fill="#dcd7e3" font-size="16" font-weight="700" text-anchor="middle">2A03: can the scanner re-find the campaign's known sites?</text>
<rect x="60.0" y="58.0" width="14.0" height="14.0" fill="#7ee0a8" fill-opacity="0.95" rx="7"/>
<text x="84.0" y="70.0" fill="#dcd7e3" font-size="13" font-weight="700" text-anchor="start">idl0</text>
<text x="280.0" y="70.0" fill="#968ba1" font-size="12" text-anchor="start">gated-drive latch (1 pass feed + 3 driver + pull-up)</text>
<rect x="60.0" y="92.0" width="14.0" height="14.0" fill="#7ee0a8" fill-opacity="0.95" rx="7"/>
<text x="84.0" y="104.0" fill="#dcd7e3" font-size="13" font-weight="700" text-anchor="start">idl7</text>
<text x="280.0" y="104.0" fill="#968ba1" font-size="12" text-anchor="start">gated-drive latch (1 pass feed + 3 driver + pull-up)</text>
<rect x="60.0" y="126.0" width="14.0" height="14.0" fill="#ff6b6b" fill-opacity="0.95" rx="7"/>
<text x="84.0" y="138.0" fill="#dcd7e3" font-size="13" font-weight="700" text-anchor="start">dor0</text>
<text x="280.0" y="138.0" fill="#968ba1" font-size="12" text-anchor="start">drive=1 pass=0 obs=3</text>
<rect x="60.0" y="160.0" width="14.0" height="14.0" fill="#ff6b6b" fill-opacity="0.95" rx="7"/>
<text x="84.0" y="172.0" fill="#dcd7e3" font-size="13" font-weight="700" text-anchor="start">dor4</text>
<text x="280.0" y="172.0" fill="#968ba1" font-size="12" text-anchor="start">drive=1 pass=0 obs=3</text>
<rect x="60.0" y="194.0" width="14.0" height="14.0" fill="#7ee0a8" fill-opacity="0.95" rx="7"/>
<text x="84.0" y="206.0" fill="#dcd7e3" font-size="13" font-weight="700" text-anchor="start">alua0</text>
<text x="280.0" y="206.0" fill="#968ba1" font-size="12" text-anchor="start">gated-drive latch (1 pass feed + 1 driver)</text>
<rect x="60.0" y="228.0" width="14.0" height="14.0" fill="#7ee0a8" fill-opacity="0.95" rx="7"/>
<text x="84.0" y="240.0" fill="#dcd7e3" font-size="13" font-weight="700" text-anchor="start">alub0</text>
<text x="280.0" y="240.0" fill="#968ba1" font-size="12" text-anchor="start">pure pass-fed cell (3 feed); shared support 8</text>
<rect x="60.0" y="262.0" width="14.0" height="14.0" fill="#ff6b6b" fill-opacity="0.95" rx="7"/>
<text x="84.0" y="274.0" fill="#dcd7e3" font-size="13" font-weight="700" text-anchor="start">_pcm_out4</text>
<text x="280.0" y="274.0" fill="#968ba1" font-size="12" text-anchor="start">drive=1 pass=0 obs=8</text>
</svg>