<svg xmlns="http://www.w3.org/2000/svg" viewBox="0 0 780 360" font-family="Segoe UI,Roboto,sans-serif">
<rect width="780" height="360" fill="#100f15"/>
<text x="390.0" y="26" fill="#dcd7e3" font-size="16" font-weight="700" text-anchor="middle">2A03: closing-edge race fingerprint — shared enable/data support</text>
<rect x="74.0" y="290.0" width="77.0" height="0.0" fill="#968ba1" fill-opacity="0.85" rx="2"/>
<text x="112.5" y="308.0" fill="#968ba1" font-size="11" text-anchor="middle">0</text>
<text x="112.5" y="284.0" fill="#dcd7e3" font-size="11.5" text-anchor="middle">0</text>
<rect x="159.0" y="192.2" width="77.0" height="97.8" fill="#ff6b6b" fill-opacity="0.85" rx="2"/>
<text x="197.5" y="308.0" fill="#968ba1" font-size="11" text-anchor="middle">1</text>
<text x="197.5" y="186.2" fill="#dcd7e3" font-size="11.5" text-anchor="middle">189</text>
<rect x="244.0" y="252.7" width="77.0" height="37.3" fill="#ff6b6b" fill-opacity="0.85" rx="2"/>
<text x="282.5" y="308.0" fill="#968ba1" font-size="11" text-anchor="middle">2</text>
<text x="282.5" y="246.7" fill="#dcd7e3" font-size="11.5" text-anchor="middle">72</text>
<rect x="329.0" y="86.5" width="77.0" height="203.5" fill="#ffb454" fill-opacity="0.85" rx="2"/>
<text x="367.5" y="308.0" fill="#968ba1" font-size="11" text-anchor="middle">3-4</text>
<text x="367.5" y="80.5" fill="#dcd7e3" font-size="11.5" text-anchor="middle">393</text>
<rect x="414.0" y="56.0" width="77.0" height="234.0" fill="#ffb454" fill-opacity="0.85" rx="2"/>
<text x="452.5" y="308.0" fill="#968ba1" font-size="11" text-anchor="middle">5-8</text>
<text x="452.5" y="50.0" fill="#dcd7e3" font-size="11.5" text-anchor="middle">452</text>
<rect x="499.0" y="228.9" width="77.0" height="61.1" fill="#ffb454" fill-opacity="0.85" rx="2"/>
<text x="537.5" y="308.0" fill="#968ba1" font-size="11" text-anchor="middle">9-16</text>
<text x="537.5" y="222.9" fill="#dcd7e3" font-size="11.5" text-anchor="middle">118</text>
<rect x="584.0" y="278.1" width="77.0" height="11.9" fill="#ffb454" fill-opacity="0.85" rx="2"/>
<text x="622.5" y="308.0" fill="#968ba1" font-size="11" text-anchor="middle">17-32</text>
<text x="622.5" y="272.1" fill="#dcd7e3" font-size="11.5" text-anchor="middle">23</text>
<rect x="669.0" y="290.0" width="77.0" height="0.0" fill="#ffb454" fill-opacity="0.85" rx="2"/>
<text x="707.5" y="308.0" fill="#968ba1" font-size="11" text-anchor="middle">33+</text>
<text x="707.5" y="284.0" fill="#dcd7e3" font-size="11.5" text-anchor="middle">0</text>
<line x1="70.0" y1="290.0" x2="750.0" y2="290.0" stroke="#968ba1" stroke-width="1"/>
<text x="410.0" y="338.0" fill="#dcd7e3" font-size="12" text-anchor="middle">|enable-cone  ∩  data-cone|   (0 = clean latch; 1-4 = tightest races, red)</text>
</svg>