<svg xmlns="http://www.w3.org/2000/svg" viewBox="0 0 780 460" font-family="Segoe UI,Roboto,sans-serif">
<rect width="780" height="460" fill="#100f15"/>
<text x="390.0" y="26" fill="#dcd7e3" font-size="16" font-weight="700" text-anchor="middle">Board inventory: parts by transistor count (log)</text>
<rect x="360.0" y="58.0" width="186.0" height="20.0" fill="#7ee0a8" fill-opacity="0.85" rx="3"/>
<text x="352.0" y="73.0" fill="#dcd7e3" font-size="12" text-anchor="end">ppu (2c02)</text>
<text x="552.0" y="73.0" fill="#dcd7e3" font-size="11.5" text-anchor="start">12 tr</text>
<rect x="360.0" y="88.0" width="6.0" height="20.0" fill="#7ee0a8" fill-opacity="0.85" rx="3"/>
<text x="352.0" y="103.0" fill="#dcd7e3" font-size="12" text-anchor="end">cpu (2a03)</text>
<text x="372.0" y="103.0" fill="#dcd7e3" font-size="11.5" text-anchor="start">0 tr</text>
<rect x="360.0" y="118.0" width="167.6" height="20.0" fill="#ffb454" fill-opacity="0.85" rx="3"/>
<text x="352.0" y="133.0" fill="#dcd7e3" font-size="12" text-anchor="end">u1 (SRAM2K)</text>
<text x="533.6" y="133.0" fill="#dcd7e3" font-size="11.5" text-anchor="start">9 tr</text>
<rect x="360.0" y="148.0" width="316.1" height="20.0" fill="#c792ea" fill-opacity="0.85" rx="3"/>
<text x="352.0" y="163.0" fill="#dcd7e3" font-size="12" text-anchor="end">u2 (74LS373)</text>
<text x="682.1" y="163.0" fill="#dcd7e3" font-size="11.5" text-anchor="start">82 tr</text>
<rect x="360.0" y="178.0" width="263.1" height="20.0" fill="#c792ea" fill-opacity="0.85" rx="3"/>
<text x="352.0" y="193.0" fill="#dcd7e3" font-size="12" text-anchor="end">u3 (74LS139)</text>
<text x="629.1" y="193.0" fill="#dcd7e3" font-size="11.5" text-anchor="start">38 tr</text>
<rect x="360.0" y="208.0" width="167.6" height="20.0" fill="#ffb454" fill-opacity="0.85" rx="3"/>
<text x="352.0" y="223.0" fill="#dcd7e3" font-size="12" text-anchor="end">u4 (SRAM2K)</text>
<text x="533.6" y="223.0" fill="#dcd7e3" font-size="11.5" text-anchor="start">9 tr</text>
<rect x="360.0" y="238.0" width="196.0" height="20.0" fill="#c792ea" fill-opacity="0.85" rx="3"/>
<text x="352.0" y="253.0" fill="#dcd7e3" font-size="12" text-anchor="end">u7 (74LS368)</text>
<text x="562.0" y="253.0" fill="#dcd7e3" font-size="11.5" text-anchor="start">14 tr</text>
<rect x="360.0" y="268.0" width="196.0" height="20.0" fill="#c792ea" fill-opacity="0.85" rx="3"/>
<text x="352.0" y="283.0" fill="#dcd7e3" font-size="12" text-anchor="end">u8 (74LS368)</text>
<text x="562.0" y="283.0" fill="#dcd7e3" font-size="11.5" text-anchor="start">14 tr</text>
<rect x="360.0" y="298.0" width="142.6" height="20.0" fill="#c792ea" fill-opacity="0.85" rx="3"/>
<text x="352.0" y="313.0" fill="#dcd7e3" font-size="12" text-anchor="end">u9 (74HC04)</text>
<text x="508.6" y="313.0" fill="#dcd7e3" font-size="11.5" text-anchor="start">6 tr</text>
<rect x="360.0" y="328.0" width="54.6" height="20.0" fill="#c792ea" fill-opacity="0.85" rx="3"/>
<text x="352.0" y="343.0" fill="#dcd7e3" font-size="12" text-anchor="end">u10 (nes-cic1)</text>
<text x="420.6" y="343.0" fill="#dcd7e3" font-size="11.5" text-anchor="start">1 tr</text>
<rect x="360.0" y="358.0" width="366.0" height="20.0" fill="#ff6b6b" fill-opacity="0.85" rx="3"/>
<text x="352.0" y="373.0" fill="#dcd7e3" font-size="12" text-anchor="end">port0 (nes-pad)</text>
<text x="732.0" y="373.0" fill="#ff6b6b" font-size="11.5" font-weight="700" text-anchor="start">168 tr  · undrivable</text>
<rect x="360.0" y="388.0" width="366.0" height="20.0" fill="#ff6b6b" fill-opacity="0.85" rx="3"/>
<text x="352.0" y="403.0" fill="#dcd7e3" font-size="12" text-anchor="end">port1 (nes-pad)</text>
<text x="732.0" y="403.0" fill="#ff6b6b" font-size="11.5" font-weight="700" text-anchor="start">168 tr  · undrivable</text>
<rect x="360.0" y="418.0" width="6.0" height="20.0" fill="#ffb454" fill-opacity="0.85" rx="3"/>
<text x="352.0" y="433.0" fill="#dcd7e3" font-size="12" text-anchor="end">cart.edge (nes-cart72)</text>
<text x="372.0" y="433.0" fill="#dcd7e3" font-size="11.5" text-anchor="start">0 tr</text>
</svg>